<?xml version="1.0" encoding="UTF-8" standalone="no"?>
<!-- Created with Inkscape (http://www.inkscape.org/) -->

<svg
   width="297mm"
   height="210mm"
   viewBox="0 0 297 210"
   version="1.1"
   id="svg5"
   inkscape:version="1.1.1 (3bf5ae0d25, 2021-09-20)"
   sodipodi:docname="DF65-Numbers.svg"
   xmlns:inkscape="http://www.inkscape.org/namespaces/inkscape"
   xmlns:sodipodi="http://sodipodi.sourceforge.net/DTD/sodipodi-0.dtd"
   xmlns="http://www.w3.org/2000/svg"
   xmlns:svg="http://www.w3.org/2000/svg">
  <sodipodi:namedview
     id="namedview7"
     pagecolor="#ffffff"
     bordercolor="#666666"
     borderopacity="1.0"
     inkscape:pageshadow="2"
     inkscape:pageopacity="0.0"
     inkscape:pagecheckerboard="0"
     inkscape:document-units="mm"
     showgrid="false"
     inkscape:zoom="0.64854097"
     inkscape:cx="397.04508"
     inkscape:cy="561.25984"
     inkscape:window-width="3440"
     inkscape:window-height="1369"
     inkscape:window-x="-8"
     inkscape:window-y="-8"
     inkscape:window-maximized="1"
     inkscape:current-layer="layer1" />
  <defs
     id="defs2" />
  <g
     inkscape:label="Ebene 1"
     inkscape:groupmode="layer"
     id="layer1">
    <path
       d="m 15.345837,78.275366 q 0,7.814907 4.983433,12.571815 5.096683,4.756908 12.232043,4.756908 7.13536,0 12.11878,-4.756908 5.09668,-4.756908 5.09668,-12.571815 V 30.932834 q 0,-7.814907 -5.09668,-12.571816 -4.98342,-4.756898 -12.11878,-4.756898 -7.13536,0 -12.232043,4.756898 -4.983433,4.756909 -4.983433,12.571816 z M 26.898333,30.932834 q 0,-2.491705 1.58563,-4.077338 1.58563,-1.6989 4.07735,-1.6989 2.4917,0 4.07735,1.6989 1.58563,1.585633 1.58563,4.077338 v 47.342532 q 0,2.491705 -1.58563,4.190605 -1.58565,1.585633 -4.07735,1.585633 -2.49172,0 -4.07735,-1.585633 -1.58563,-1.6989 -1.58563,-4.190605 z"
       style="font-size:10.5833px;line-height:1.25;font-family:DIN1451Engschrift;-inkscape-font-specification:DIN1451Engschrift;stroke-width:0.5;fill:#666666;stroke:#000000;stroke-opacity:1;stroke-miterlimit:4;stroke-dasharray:none"
       id="path5854" />
    <path
       d="M 91.101584,94.924529 H 102.65406 V 14.28367 H 91.101584 l -11.55248,8.494477 v 12.232036 l 11.55248,-8.494467 z"
       style="font-size:10.5833px;line-height:1.25;font-family:DIN1451Engschrift;-inkscape-font-specification:DIN1451Engschrift;stroke-width:0.5;fill:#666666;stroke:#000000;stroke-opacity:1;stroke-miterlimit:4;stroke-dasharray:none"
       id="path5856" />
    <path
       d="m 132.42645,94.924529 h 34.43093 V 83.372044 h -20.83977 l 16.98894,-32.732026 q 1.35912,-2.604972 2.15193,-4.417128 0.79279,-1.812157 1.1326,-3.511046 0.33978,-1.812156 0.453,-3.624312 0.11323,-1.925413 0.11323,-5.209945 0,-8.720991 -4.30387,-14.497229 -4.30386,-5.776238 -12.79834,-5.776238 -3.51105,0 -6.68231,1.35911 -3.17128,1.359119 -5.54973,3.850825 -2.37845,2.37846 -3.73757,5.662981 -1.35912,3.171276 -1.35912,6.682322 v 6.342541 h 11.55249 v -6.569065 q 0,-2.718229 1.47238,-4.190605 1.58563,-1.585633 4.1906,-1.585633 3.73757,0 4.98342,2.944753 0.45301,1.132596 0.56634,2.491716 0.11322,1.359109 0.11322,3.511045 0,3.850825 -0.33978,5.889495 -0.22655,2.038679 -1.69889,4.756908 l -20.83978,39.301091 z"
       style="font-size:10.5833px;line-height:1.25;font-family:DIN1451Engschrift;-inkscape-font-specification:DIN1451Engschrift;stroke-width:0.5;fill:#666666;stroke:#000000;stroke-opacity:1;stroke-miterlimit:4;stroke-dasharray:none"
       id="path5858" />
    <path
       d="m 204.67103,58.454925 q 5.66298,0 7.36187,1.472376 1.81216,1.472377 1.81216,6.116018 v 11.552487 q 0,2.944752 -1.58564,4.756909 -1.47237,1.698889 -4.07735,1.698889 -2.60497,0 -4.1906,-1.698889 -1.47238,-1.812157 -1.47238,-4.530386 v -6.002761 h -11.55247 v 6.569054 q 0,4.530385 1.47236,7.928174 1.58565,3.284533 4.07735,5.323202 2.60497,2.038671 5.54973,3.058011 3.05801,0.90611 6.00276,0.90611 4.98342,0 8.49447,-1.92542 3.51105,-2.038669 5.77624,-5.436458 1.92542,-2.718229 2.49171,-5.776238 0.56633,-3.058009 0.56633,-10.75967 0,-5.209934 -0.22655,-7.588394 -0.11323,-2.491706 -0.79279,-4.303862 -0.56633,-1.925412 -2.03866,-3.397789 -1.35912,-1.472376 -4.07735,-3.171265 2.60497,-1.585643 3.96408,-2.831496 1.35912,-1.245853 2.03868,-2.944753 0.67956,-1.698889 0.90611,-4.077348 0.22656,-2.491706 0.22656,-7.022091 0,-7.361881 -1.01934,-10.75967 -0.90612,-3.397789 -3.39779,-6.342531 -1.81216,-2.265193 -5.09669,-3.964092 -3.17126,-1.698889 -7.47512,-1.698889 -3.51106,0 -6.68233,1.359109 -3.17126,1.245863 -5.66298,3.624312 -2.37845,2.378449 -3.73757,5.549714 -1.35911,3.05802 -1.35911,6.569065 v 6.682322 H 202.5192 V 30.81961 q 0,-2.151936 1.35912,-3.850825 1.47238,-1.812157 4.30386,-1.812157 2.60497,0 4.07735,1.585633 1.58563,1.585643 1.58563,4.077349 V 41.2395 q 0,4.303862 -1.92541,5.662982 -1.81216,1.359109 -7.24861,1.359109 z"
       style="font-size:10.5833px;line-height:1.25;font-family:DIN1451Engschrift;-inkscape-font-specification:DIN1451Engschrift;stroke-width:0.5;fill:#666666;stroke:#000000;stroke-opacity:1;stroke-miterlimit:4;stroke-dasharray:none"
       id="path5860" />
    <path
       d="m 269.66718,94.924529 h 11.55247 V 82.919007 h 5.54973 V 72.046081 h -5.54973 V 49.054375 H 269.66718 V 72.046081 H 258.22796 L 275.55667,14.28367 h -12.23203 l -16.64917,57.762411 v 10.872926 h 22.99171 z"
       style="font-size:10.5833px;line-height:1.25;font-family:DIN1451Engschrift;-inkscape-font-specification:DIN1451Engschrift;stroke-width:0.5;fill:#666666;stroke:#000000;stroke-opacity:1;stroke-miterlimit:4;stroke-dasharray:none"
       id="path5862" />
    <path
       d="M 49.776803,116.27545 H 16.704988 v 43.49169 h 10.193375 l 0.11322,-0.22655 q 0.79279,-1.6989 2.03868,-2.94475 1.35911,-1.24586 3.73757,-1.24586 2.37845,0 3.85083,1.69889 1.58563,1.6989 1.58563,4.07735 v 18.91436 q 0,2.8315 -1.47238,4.41713 -1.35911,1.58563 -3.96408,1.58563 -2.60497,0 -4.30387,-1.69889 -1.58564,-1.6989 -1.58564,-4.53038 v -2.94476 H 15.345837 v 3.39779 q 0,7.81491 4.983433,12.57182 5.096683,4.75691 12.232043,4.75691 7.13535,0 12.11877,-4.75691 5.09669,-4.75691 5.09669,-12.57182 v -20.83977 q 0,-6.79558 -3.62431,-10.53314 -3.62431,-3.73757 -9.62706,-3.73757 -2.8315,0 -5.43647,1.01934 -2.49171,1.01934 -4.19061,2.71823 v -21.74586 h 22.87845 z"
       style="font-size:10.5833px;line-height:1.25;font-family:DIN1451Engschrift;-inkscape-font-specification:DIN1451Engschrift;stroke-width:0.5;fill:#666666;stroke:#000000;stroke-opacity:1;stroke-miterlimit:4;stroke-dasharray:none"
       id="path5864" />
    <path
       d="M 103.97921,116.27545 H 91.067601 l -15.17679,40.54695 q -1.24585,3.51105 -1.69889,6.4558 -0.453,2.94475 -0.453,10.0801 0,7.81492 0.453,10.75967 0.56634,2.94475 2.26519,5.66298 2.2652,3.6243 6.00277,5.77624 3.85082,2.03868 8.49446,2.03868 4.75691,0 8.60774,-2.03868 3.850819,-2.03867 6.002759,-5.77624 1.58563,-2.71823 2.03867,-5.66298 0.56633,-2.94475 0.56633,-10.75967 0,-5.20993 -0.11322,-8.15469 -0.11323,-2.94475 -0.33978,-4.87016 -0.45301,-3.39779 -2.03868,-5.77624 -1.47238,-2.26519 -4.19061,-3.73757 -2.604969,-1.47237 -5.549719,-1.47237 -3.39779,0 -4.87017,1.01934 l -0.22655,-0.22656 z m -7.361889,63.9917 q 0,2.4917 -1.69888,4.1906 -1.6989,1.58563 -3.9641,1.58563 -2.26519,0 -3.96408,-1.58563 -1.6989,-1.6989 -1.6989,-4.1906 v -14.95028 q 0,-2.49171 1.6989,-4.07735 1.69889,-1.69889 3.96408,-1.69889 2.2652,0 3.9641,1.69889 1.69888,1.58564 1.69888,4.07735 z"
       style="font-size:10.5833px;line-height:1.25;font-family:DIN1451Engschrift;-inkscape-font-specification:DIN1451Engschrift;stroke-width:0.5;fill:#666666;stroke:#000000;stroke-opacity:1;stroke-miterlimit:4;stroke-dasharray:none"
       id="path5866" />
    <path
       d="m 134.73696,196.91631 h 12.23203 l 19.59392,-69.08837 v -11.55249 h -34.43092 v 20.16022 h 10.19336 v -9.28729 h 12.68507 z"
       style="font-size:10.5833px;line-height:1.25;font-family:DIN1451Engschrift;-inkscape-font-specification:DIN1451Engschrift;stroke-width:0.5;fill:#666666;stroke:#000000;stroke-opacity:1;stroke-miterlimit:4;stroke-dasharray:none"
       id="path5868" />
    <path
       d="m 213.40352,144.59036 q 0,2.37846 -1.69888,4.07735 -1.6989,1.58563 -3.9641,1.58563 -2.26519,0 -3.96408,-1.58563 -1.6989,-1.69889 -1.6989,-4.07735 v -11.779 q 0,-2.37845 1.6989,-3.96408 1.69889,-1.6989 3.96408,-1.6989 2.2652,0 3.9641,1.6989 1.69888,1.58563 1.69888,3.96408 z m -22.87843,-7.24862 q 0,3.96409 0.11322,6.34254 0.22656,2.37845 0.67956,4.30387 0.56634,1.81215 1.69889,3.39778 1.24586,1.47238 3.28453,3.17128 -2.15193,1.58563 -3.28453,3.17127 -1.1326,1.58563 -1.69889,3.73756 -0.453,2.03867 -0.67956,4.98343 -0.11322,2.83149 -0.11322,7.92817 0,7.13536 0.67956,10.30662 0.67956,3.05802 2.49171,5.77625 2.03867,3.17127 5.66298,5.20994 3.62432,1.92542 8.38121,1.92542 4.75691,0 8.38121,-1.92542 3.62432,-2.03867 5.66299,-5.20994 1.92541,-2.71823 2.49171,-5.77625 0.67956,-3.17126 0.67956,-10.30662 0,-5.09668 -0.11322,-7.92817 -0.11323,-2.94476 -0.67956,-4.98343 -0.56634,-2.15193 -1.6989,-3.73756 -1.1326,-1.58564 -3.28453,-3.17127 2.03868,-1.6989 3.17127,-3.17128 1.24585,-1.58563 1.81216,-3.39778 0.56633,-1.92542 0.67956,-4.30387 0.11322,-2.37845 0.11322,-6.34254 0,-6.34254 -0.90611,-9.40055 -0.90612,-3.05801 -3.28453,-6.11602 -2.26519,-2.94475 -5.66298,-4.53038 -3.39779,-1.69889 -7.36188,-1.69889 -3.96408,0 -7.36187,1.69889 -3.39779,1.58563 -5.66298,4.53038 -2.37846,3.05801 -3.28453,6.11602 -0.90612,3.05801 -0.90612,9.40055 z m 22.87843,43.03866 q 0,2.37845 -1.69888,4.07735 -1.6989,1.58563 -3.9641,1.58563 -2.26519,0 -3.96408,-1.58563 -1.6989,-1.6989 -1.6989,-4.07735 v -15.85635 q 0,-2.37845 1.6989,-3.96408 1.69889,-1.6989 3.96408,-1.6989 2.2652,0 3.9641,1.6989 1.69888,1.58563 1.69888,3.96408 z"
       style="font-size:10.5833px;line-height:1.25;font-family:DIN1451Engschrift;-inkscape-font-specification:DIN1451Engschrift;stroke-width:0.5;fill:#666666;stroke:#000000;stroke-opacity:1;stroke-miterlimit:4;stroke-dasharray:none"
       id="path5870" />
    <path
       d="m 253.10876,196.91631 h 12.9116 l 15.17678,-40.54694 q 1.35912,-3.51106 1.6989,-6.45581 0.45301,-2.94474 0.45301,-10.0801 0,-7.81492 -0.56634,-10.75967 -0.453,-2.94475 -2.15192,-5.66298 -2.26519,-3.6243 -6.11603,-5.66298 -3.73757,-2.15193 -8.38121,-2.15193 -4.7569,0 -8.60774,2.03867 -3.85082,2.03867 -6.00275,5.77624 -1.58564,2.71823 -2.15193,5.66298 -0.45301,2.94475 -0.45301,10.75967 0,5.20994 0.11323,8.15469 0.11322,2.94475 0.33978,4.87016 0.453,3.28453 2.03867,5.77624 1.47237,2.26519 4.07735,3.73757 2.71822,1.47237 5.66298,1.47237 3.39779,0 4.87016,-1.01934 l 0.22656,0.22656 z m 7.36187,-63.9917 q 0,-2.4917 1.6989,-4.07733 1.69889,-1.6989 3.96408,-1.6989 2.2652,0 3.9641,1.6989 1.69888,1.58563 1.69888,4.07733 v 14.95028 q 0,2.49172 -1.69888,4.1906 -1.6989,1.58564 -3.9641,1.58564 -2.26519,0 -3.96408,-1.58564 -1.6989,-1.69888 -1.6989,-4.1906 z"
       style="font-size:10.5833px;line-height:1.25;font-family:DIN1451Engschrift;-inkscape-font-specification:DIN1451Engschrift;stroke-width:0.5;fill:#666666;stroke:#000000;stroke-opacity:1;stroke-miterlimit:4;stroke-dasharray:none"
       id="path5872" />
  </g>
</svg>
