<?xml version="1.0" encoding="UTF-8" standalone="no"?>
<!-- Created with Inkscape (http://www.inkscape.org/) -->

<svg
   width="16cm"
   height="10cm"
   viewBox="0 0 160 100"
   version="1.1"
   id="svg5"
   inkscape:version="1.1.1 (3bf5ae0d25, 2021-09-20)"
   sodipodi:docname="DF65-Patches-B.svg"
   xmlns:inkscape="http://www.inkscape.org/namespaces/inkscape"
   xmlns:sodipodi="http://sodipodi.sourceforge.net/DTD/sodipodi-0.dtd"
   xmlns="http://www.w3.org/2000/svg"
   xmlns:svg="http://www.w3.org/2000/svg">
  <sodipodi:namedview
     id="namedview7"
     pagecolor="#ffffff"
     bordercolor="#666666"
     borderopacity="1.0"
     inkscape:pageshadow="2"
     inkscape:pageopacity="0.0"
     inkscape:pagecheckerboard="0"
     inkscape:document-units="mm"
     showgrid="false"
     inkscape:zoom="1.3746563"
     inkscape:cx="401.1912"
     inkscape:cy="365.90965"
     inkscape:window-width="1718"
     inkscape:window-height="1345"
     inkscape:window-x="-7"
     inkscape:window-y="0"
     inkscape:window-maximized="0"
     inkscape:current-layer="layer1"
     units="cm">
    <inkscape:grid
       type="xygrid"
       id="grid2033"
       units="mm"
       spacingx="4.9999999"
       spacingy="4.9999999" />
  </sodipodi:namedview>
  <defs
     id="defs2" />
  <g
     inkscape:label="Ebene 1"
     inkscape:groupmode="layer"
     id="layer1">
    <path
       style="display:inline;fill:#cccccc;stroke:#000000;stroke-width:0.5;stroke-linecap:butt;stroke-linejoin:miter;stroke-miterlimit:4;stroke-dasharray:none;stroke-opacity:1"
       d="m 54.795451,94.970098 -49.7954511,0.0299 8.6545821,-30.7786 c 4.680584,1.47549 3.631736,1.1365 2.549764,16.3667 -0.131948,1.85727 0.433648,3.47589 1.425364,4.73555 0.495866,0.62984 1.115091,1.21178 1.858968,1.63864 0.743878,0.42687 1.612043,0.70014 2.608488,0.70968 l 31.022172,0.29587 8.847303,-4.95805 c 1.639976,-0.98073 3.377064,-0.55233 4.232234,-0.25013 z"
       id="path8892"
       sodipodi:nodetypes="cccsssccccc"
       inkscape:connector-curvature="0" />
    <path
       style="display:inline;fill:#666666;stroke:#000000;stroke-width:0.5;stroke-linecap:butt;stroke-linejoin:miter;stroke-miterlimit:4;stroke-dasharray:none;stroke-opacity:1"
       d="M 4.9999999,4.9999999 14.474197,38.69344 c 6.715071,-2.11899 6.566185,-2.07206 4.713348,-19.59678 -0.193695,-1.83198 1.346103,-3.75275 2.938886,-3.76799 l 30.223065,-0.28929 8.150081,4.56843 c 3.092779,1.73363 5.30923,0.97297 7.946514,0.0388 L 54.79545,5.0299199 Z"
       id="path8824"
       sodipodi:nodetypes="ccsscsccc"
       inkscape:connector-curvature="0" />
    <path
       style="display:inline;fill:#cccccc;stroke:#000000;stroke-width:0.5;stroke-linecap:round;stroke-linejoin:round;stroke-miterlimit:4;stroke-dasharray:none;stroke-opacity:1"
       d="m 85.778851,67.415758 c 0,0 -5.50593,7.50965 -15.99118,9.45831 l -44.061965,8.1888 0.0536,-17.58332 59.999565,-0.0638"
       id="path8874"
       sodipodi:nodetypes="csccc"
       inkscape:connector-curvature="0" />
    <path
       style="display:inline;fill:#666666;stroke:#000000;stroke-width:0.5;stroke-linecap:round;stroke-linejoin:round;stroke-miterlimit:4;stroke-dasharray:none;stroke-opacity:1"
       d="m 101.10242,45.22211 c 0,0 -6.10612,-12.47787 -22.19603,-15.46815 l -52.865605,-9.82495 0.0623,25.21334 z"
       id="path8872"
       sodipodi:nodetypes="csccc"
       inkscape:connector-curvature="0" />
    <path
       style="display:inline;fill:#cccccc;stroke:#000000;stroke-width:0.5;stroke-linecap:round;stroke-linejoin:round;stroke-miterlimit:4;stroke-dasharray:none;stroke-opacity:1"
       d="m 5.0000006,42.354764 9.9996494,0.0333 -1.96139,16.95687 c -0.94161,8.14051 -8.1751194,7.98611 -8.1751194,7.98611 l 0.13593,-24.97625"
       id="path8878"
       sodipodi:nodetypes="ccscc"
       inkscape:connector-curvature="0" />
    <path
       style="display:inline;fill:#666666;stroke:#000000;stroke-width:0.5;stroke-linecap:round;stroke-linejoin:round;stroke-miterlimit:4;stroke-dasharray:none;stroke-opacity:1"
       d="m 47.908781,48.408518 29.97647,-0.16426 c 0,0 0.11839,11.67778 -10.15337,12.86681 l -19.77317,2.29405 z"
       id="path8876"
       sodipodi:nodetypes="ccscc"
       inkscape:connector-curvature="0" />
    <path
       style="display:inline;fill:#cccccc;stroke:#000000;stroke-width:0.5;stroke-linecap:butt;stroke-linejoin:miter;stroke-miterlimit:4;stroke-dasharray:none;stroke-opacity:1"
       d="m 128.41249,64.999999 -49.989233,0.0767 c 0,0 0.32962,-4.55856 50.294143,-25.08082 z"
       id="path8880"
       sodipodi:nodetypes="cccc"
       inkscape:transform-center-x="21.25368"
       inkscape:transform-center-y="-11.89247"
       inkscape:connector-curvature="0" />
    <path
       style="display:inline;fill:#666666;fill-opacity:1;stroke:#000000;stroke-width:0.5;stroke-linecap:butt;stroke-linejoin:miter;stroke-miterlimit:4;stroke-dasharray:none;stroke-opacity:1"
       d="m 119.22931,95.140268 33.14973,-0.4091 0.11004,-69.98465 c 0,0 -4.53092,0.25771 -33.25977,70.39375 z"
       id="path8834"
       sodipodi:nodetypes="cccc"
       inkscape:transform-center-x="17.30358"
       inkscape:transform-center-y="-28.645457"
       inkscape:connector-curvature="0" />
    <path
       style="display:inline;fill:#cccccc;stroke:#000000;stroke-width:0.5;stroke-linecap:butt;stroke-linejoin:miter;stroke-miterlimit:4;stroke-dasharray:none;stroke-opacity:1"
       d="m 83.153729,73.25235 6.94736,-2.82568 25.314271,5.05002 c 7.56383,1.50893 6.69374,7.53195 6.69374,7.53195 l -34.999441,-0.03 z"
       id="path8884"
       sodipodi:nodetypes="ccsccc"
       inkscape:connector-curvature="0" />
    <path
       style="display:inline;fill:#666666;stroke:#000000;stroke-width:0.5;stroke-linecap:butt;stroke-linejoin:miter;stroke-miterlimit:4;stroke-dasharray:none;stroke-opacity:1"
       d="m 144.47733,19.87291 -54.998988,0.0472 c 0,0 -0.9414,-6.24774 9.07547,-8.24606 l 35.984658,-7.17876 13.89479,5.65137 z"
       id="path8828"
       sodipodi:nodetypes="ccsccc"
       inkscape:connector-curvature="0" />
    <path
       style="display:inline;fill:#cccccc;stroke:#000000;stroke-width:0.5;stroke-linecap:round;stroke-linejoin:round;stroke-miterlimit:4;stroke-dasharray:none;stroke-opacity:1"
       d="m 44.945231,48.412448 -26.532729,5e-5 c 0,0 0,4.8587 4.845909,7.60814 l 14.88565,8.44572 z"
       id="path8882"
       sodipodi:nodetypes="ccscc"
       inkscape:connector-curvature="0" />
    <path
       style="display:inline;fill:#666666;stroke:#000000;stroke-width:0.5;stroke-linecap:round;stroke-linejoin:round;stroke-miterlimit:4;stroke-dasharray:none;stroke-opacity:1"
       d="m 107.10269,45.724099 23.11694,-13.11591 c 4.78036,-2.71225 4.78036,-7.6082 4.78036,-7.6082 l -36.676986,-2e-5 z"
       id="path8830"
       sodipodi:nodetypes="csccc"
       inkscape:connector-curvature="0" />
  </g>
</svg>
