<?xml version="1.0" encoding="UTF-8" standalone="no"?>
<!-- Created with Inkscape (http://www.inkscape.org/) -->

<svg
   width="16cm"
   height="10cm"
   viewBox="0 0 160 100"
   version="1.1"
   id="svg5"
   inkscape:version="1.1.1 (3bf5ae0d25, 2021-09-20)"
   sodipodi:docname="DF65-Patches-A.svg"
   xmlns:inkscape="http://www.inkscape.org/namespaces/inkscape"
   xmlns:sodipodi="http://sodipodi.sourceforge.net/DTD/sodipodi-0.dtd"
   xmlns="http://www.w3.org/2000/svg"
   xmlns:svg="http://www.w3.org/2000/svg">
  <sodipodi:namedview
     id="namedview7"
     pagecolor="#ffffff"
     bordercolor="#666666"
     borderopacity="1.0"
     inkscape:pageshadow="2"
     inkscape:pageopacity="0.0"
     inkscape:pagecheckerboard="0"
     inkscape:document-units="mm"
     showgrid="true"
     inkscape:zoom="1.9440575"
     inkscape:cx="242.01959"
     inkscape:cy="188.78042"
     inkscape:window-width="3440"
     inkscape:window-height="1369"
     inkscape:window-x="-8"
     inkscape:window-y="-8"
     inkscape:window-maximized="1"
     inkscape:current-layer="layer1"
     units="cm">
    <inkscape:grid
       type="xygrid"
       id="grid2033"
       units="mm"
       spacingx="4.9999999"
       spacingy="4.9999999" />
  </sodipodi:namedview>
  <defs
     id="defs2" />
  <g
     inkscape:label="Ebene 1"
     inkscape:groupmode="layer"
     id="layer1">
    <path
       style="display:inline;fill:#cccccc;stroke:#000000;stroke-width:0.5;stroke-linecap:butt;stroke-linejoin:miter;stroke-miterlimit:4;stroke-dasharray:none;stroke-opacity:1"
       d="m 73.726032,95.048998 -68.7260321,-0.049 8.9976641,-30.67495 c 4.671864,1.50287 3.462016,1.10531 2.290881,16.32892 -0.0834,3.61943 2.296834,7.02764 5.851239,7.11825 l 49.616497,0.31064 7.421564,-5.59297 c 1.526033,-1.15003 2.913611,-1.1469 3.766996,-0.8397 z"
       id="path10247-2"
       sodipodi:nodetypes="ccccccscc"
       inkscape:connector-curvature="0" />
    <path
       style="display:inline;fill:#666666;stroke:#000000;stroke-width:0.5;stroke-linecap:butt;stroke-linejoin:miter;stroke-miterlimit:4;stroke-dasharray:none;stroke-opacity:1"
       d="M 4.9999999,4.9999999 14.849775,38.57997 c 6.702548,-2.15827 6.375495,-2.05306 4.420073,-19.56663 -0.20442,-1.83082 1.324105,-3.76057 2.916772,-3.78514 l 47.813806,-0.2467 7.211374,5.24284 c 2.867743,2.08492 5.22241,2.15805 7.854179,1.20845 L 73.7262,4.9509899 Z"
       id="path8579-4-0"
       sodipodi:nodetypes="ccsscsccc"
       inkscape:connector-curvature="0" />
    <path
       style="display:inline;fill:#cccccc;stroke:#000000;stroke-width:0.5;stroke-linecap:round;stroke-linejoin:round;stroke-miterlimit:4;stroke-dasharray:none;stroke-opacity:1"
       d="m 85.778871,67.415748 c 0,0 -5.8594,9.709 -16.41623,11.22281 L 25,84.999998 l 0.77997,-17.56611 59.998901,-0.0181"
       id="path3681-9"
       sodipodi:nodetypes="csccc"
       inkscape:connector-curvature="0" />
    <path
       style="display:inline;fill:#666666;stroke:#000000;stroke-width:0.5;stroke-linecap:round;stroke-linejoin:round;stroke-miterlimit:4;stroke-dasharray:none;stroke-opacity:1"
       d="m 101.10242,45.22211 c 0,0 -6.676339,-15.26665 -22.876039,-17.58963 L 25,20 26.10386,45.18926 Z"
       id="path3655-6"
       sodipodi:nodetypes="csccc"
       inkscape:connector-curvature="0" />
    <path
       style="display:inline;fill:#cccccc;stroke:#000000;stroke-width:0.5;stroke-linecap:round;stroke-linejoin:round;stroke-miterlimit:4;stroke-dasharray:none;stroke-opacity:1"
       d="m 4.9999999,42.354164 9.9996501,0.0339 -1.96139,16.95632 c -0.94164,8.14051 -8.2076501,7.98611 -8.2076501,7.98611 l 0.16939,-24.97633"
       id="path1982-9"
       sodipodi:nodetypes="ccscc"
       inkscape:connector-curvature="0" />
    <path
       style="display:inline;fill:#666666;stroke:#000000;stroke-width:0.5;stroke-linecap:round;stroke-linejoin:round;stroke-miterlimit:4;stroke-dasharray:none;stroke-opacity:1"
       d="m 47.883331,48.412498 30.00109,-0.20728 c 0,0 0.11839,11.71682 -10.15337,12.90585 l -19.77234,2.29405 z"
       id="path1956-0"
       sodipodi:nodetypes="ccscc"
       inkscape:connector-curvature="0" />
    <path
       style="display:inline;fill:#cccccc;stroke:#000000;stroke-width:0.5;stroke-linecap:butt;stroke-linejoin:miter;stroke-miterlimit:4;stroke-dasharray:none;stroke-opacity:1"
       d="m 83.153729,73.25235 7.17169,-2.48179 24.549461,4.84276 c 7.56705,1.49272 6.70986,7.51758 6.70986,7.51758 L 86.587499,83.175 Z"
       id="path2045-2"
       sodipodi:nodetypes="ccsccc"
       inkscape:connector-curvature="0"
       inkscape:transform-center-x="0.21002217"
       inkscape:transform-center-y="16.538694" />
    <path
       style="display:inline;fill:#666666;stroke:#000000;stroke-width:0.5;stroke-linecap:butt;stroke-linejoin:miter;stroke-miterlimit:4;stroke-dasharray:none;stroke-opacity:1"
       d="M 144.99949,20.0693 89.999998,20 c 0,0 -0.92807,-6.24973 9.09305,-8.22667 L 133.51225,4.9831895 148.43326,10.14666 Z"
       id="path2043-6"
       sodipodi:nodetypes="ccsccc"
       inkscape:connector-curvature="0"
       inkscape:transform-center-x="-3.3079456"
       inkscape:transform-center-y="25.923001" />
    <path
       style="display:inline;fill:#cccccc;stroke:#000000;stroke-width:0.5;stroke-linecap:butt;stroke-linejoin:miter;stroke-miterlimit:4;stroke-dasharray:none;stroke-opacity:1"
       d="m 128.41249,64.999999 -54.999752,0.0201 c 0,0 4.1582,-6.77854 55.202592,-24.44445 z"
       id="path1561-9-1-6"
       sodipodi:nodetypes="cccc"
       inkscape:transform-center-x="11.89247"
       inkscape:transform-center-y="21.253675"
       inkscape:connector-curvature="0" />
    <path
       style="display:inline;fill:#666666;fill-opacity:1;stroke:#000000;stroke-width:0.5;stroke-linecap:butt;stroke-linejoin:miter;stroke-miterlimit:4;stroke-dasharray:none;stroke-opacity:1"
       d="m 119.99997,94.999998 32.37907,-0.26883 0.0274,-74.999763 c 0,0 -7.68697,3.62112 -32.40644,75.268593 z"
       id="path1561-3-5-8-1"
       sodipodi:nodetypes="cccc"
       inkscape:transform-center-x="-28.64546"
       inkscape:transform-center-y="-17.303578"
       inkscape:connector-curvature="0" />
    <path
       style="display:inline;fill:#cccccc;stroke:#000000;stroke-width:0.5;stroke-linecap:round;stroke-linejoin:round;stroke-miterlimit:4;stroke-dasharray:none;stroke-opacity:1"
       d="m 44.945231,48.412448 -26.532732,5e-5 c 0,0 0,4.8587 4.84592,7.60814 l 15.808902,8.97876 z"
       id="path2031-7"
       sodipodi:nodetypes="ccscc"
       inkscape:connector-curvature="0" />
    <path
       style="display:inline;fill:#666666;stroke:#000000;stroke-width:0.5;stroke-linecap:round;stroke-linejoin:round;stroke-miterlimit:4;stroke-dasharray:none;stroke-opacity:1"
       d="M 105.91084,46.412219 130.21964,32.60819 C 134.999,29.894179 135,25 135,25 l -36.676996,-3.1e-5 z"
       id="path2027-61"
       sodipodi:nodetypes="csccc"
       inkscape:connector-curvature="0" />
  </g>
</svg>
