<?xml version="1.0" encoding="UTF-8" standalone="no"?>
<svg
   width="10cm"
   height="5cm"
   viewBox="0 0 100 50"
   version="1.1"
   id="svg5187"
   inkscape:version="1.1.1 (3bf5ae0d25, 2021-09-20)"
   sodipodi:docname="DF65_SailPatches_1.svg"
   xmlns:inkscape="http://www.inkscape.org/namespaces/inkscape"
   xmlns:sodipodi="http://sodipodi.sourceforge.net/DTD/sodipodi-0.dtd"
   xmlns="http://www.w3.org/2000/svg"
   xmlns:svg="http://www.w3.org/2000/svg"
   xmlns:rdf="http://www.w3.org/1999/02/22-rdf-syntax-ns#"
   xmlns:cc="http://creativecommons.org/ns#"
   xmlns:dc="http://purl.org/dc/elements/1.1/">
  <defs
     id="defs5181" />
  <sodipodi:namedview
     id="base"
     pagecolor="#ffffff"
     bordercolor="#666666"
     borderopacity="1.0"
     inkscape:pageopacity="0.0"
     inkscape:pageshadow="2"
     inkscape:zoom="3.1829375"
     inkscape:cx="188.97638"
     inkscape:cy="131.32523"
     inkscape:document-units="mm"
     inkscape:current-layer="layer1"
     inkscape:document-rotation="0"
     showgrid="true"
     inkscape:snap-smooth-nodes="true"
     inkscape:snap-midpoints="true"
     inkscape:snap-intersection-paths="true"
     inkscape:object-paths="true"
     inkscape:window-width="3440"
     inkscape:window-height="1369"
     inkscape:window-x="-8"
     inkscape:window-y="-8"
     inkscape:window-maximized="1"
     inkscape:pagecheckerboard="0"
     units="cm">
    <inkscape:grid
       type="xygrid"
       id="grid5750"
       units="mm"
       spacingx="0.99999999"
       spacingy="0.99999999" />
  </sodipodi:namedview>
  <metadata
     id="metadata5184">
    <rdf:RDF>
      <cc:Work
         rdf:about="">
        <dc:format>image/svg+xml</dc:format>
        <dc:type
           rdf:resource="http://purl.org/dc/dcmitype/StillImage" />
      </cc:Work>
    </rdf:RDF>
  </metadata>
  <g
     inkscape:label="Ebene 1"
     inkscape:groupmode="layer"
     id="layer1">
    <path
       id="path5173"
       style="opacity:1;fill:#666666;stroke:#000000;stroke-width:0.5;stroke-linecap:round;stroke-linejoin:round;stroke-miterlimit:4;stroke-dasharray:none;stroke-opacity:1"
       d="m 23.970833,8.1458335 a 9.5,2.5 0 0 1 -9.5,2.5000005 9.5,2.5 0 0 1 -9.4999997,-2.5000005 9.5,2.5 0 0 1 9.4999997,-2.5 9.5,2.5 0 0 1 9.5,2.5 z" />
    <path
       id="path5173-2"
       style="fill:#666666;stroke:#000000;stroke-width:0.5;stroke-linecap:round;stroke-linejoin:round;stroke-miterlimit:4;stroke-dasharray:none;stroke-opacity:1"
       d="m 23.970833,14.991989 a 9.5,2.5 0 0 1 -9.5,2.5 9.5,2.5 0 0 1 -9.4999997,-2.5 9.5,2.5 0 0 1 9.4999997,-2.5 9.5,2.5 0 0 1 9.5,2.5 z" />
    <path
       id="path5173-2-6"
       style="fill:#666666;stroke:#000000;stroke-width:0.5;stroke-linecap:round;stroke-linejoin:round;stroke-miterlimit:4;stroke-dasharray:none;stroke-opacity:1"
       d="m 23.970833,21.838142 a 9.5,2.5 0 0 1 -9.5,2.5 9.5,2.5 0 0 1 -9.4999997,-2.5 9.5,2.5 0 0 1 9.4999997,-2.5 9.5,2.5 0 0 1 9.5,2.5 z" />
    <path
       id="path5173-5"
       style="fill:#666666;stroke:#000000;stroke-width:0.5;stroke-linecap:round;stroke-linejoin:round;stroke-miterlimit:4;stroke-dasharray:none;stroke-opacity:1"
       d="m 23.970833,28.684295 a 9.5,2.5 0 0 1 -9.5,2.5 9.5,2.5 0 0 1 -9.4999997,-2.5 9.5,2.5 0 0 1 9.4999997,-2.5 9.5,2.5 0 0 1 9.5,2.5 z" />
    <path
       id="path5173-2-5"
       style="fill:#666666;stroke:#000000;stroke-width:0.5;stroke-linecap:round;stroke-linejoin:round;stroke-miterlimit:4;stroke-dasharray:none;stroke-opacity:1"
       d="m 23.970833,35.530448 a 9.5,2.5 0 0 1 -9.5,2.5 9.5,2.5 0 0 1 -9.4999997,-2.5 9.5,2.5 0 0 1 9.4999997,-2.5 9.5,2.5 0 0 1 9.5,2.5 z" />
    <path
       id="path5173-2-6-0"
       style="fill:#666666;stroke:#000000;stroke-width:0.5;stroke-linecap:round;stroke-linejoin:round;stroke-miterlimit:4;stroke-dasharray:none;stroke-opacity:1"
       d="m 23.970833,42.376601 a 9.5,2.5 0 0 1 -9.5,2.5 9.5,2.5 0 0 1 -9.4999997,-2.5 9.5,2.5 0 0 1 9.4999997,-2.5 9.5,2.5 0 0 1 9.5,2.5 z" />
    <path
       id="path5177-3"
       style="fill:#666666;stroke:#000000;stroke-width:0.5;stroke-linecap:butt;stroke-linejoin:miter;stroke-miterlimit:4;stroke-dasharray:none;stroke-opacity:1"
       d="m 69.179163,10.646016 c 0,-1.9999993 -4.000028,-4.0002092 -8.000029,-5.0002103 -4,1.000001 -8.000028,3.000211 -8.000028,5.0002103 v 5.999637 c 0,1.999998 4.000028,4.000211 8.000028,5.000209 4.000001,-0.999998 8.000029,-3.000211 8.000029,-5.000209 z" />
    <path
       id="path5173-9"
       style="fill:#666666;stroke:#000000;stroke-width:0.5;stroke-linecap:round;stroke-linejoin:round;stroke-miterlimit:4;stroke-dasharray:none;stroke-opacity:1"
       d="m 47.912499,8.1458335 a 9.5,2.5 0 0 1 -9.5,2.5000005 9.5,2.5 0 0 1 -9.5,-2.5000005 9.5,2.5 0 0 1 9.5,-2.5 9.5,2.5 0 0 1 9.5,2.5 z" />
    <path
       id="path5173-2-07"
       style="fill:#666666;stroke:#000000;stroke-width:0.5;stroke-linecap:round;stroke-linejoin:round;stroke-miterlimit:4;stroke-dasharray:none;stroke-opacity:1"
       d="m 47.912499,14.991989 a 9.5,2.5 0 0 1 -9.5,2.5 9.5,2.5 0 0 1 -9.5,-2.5 9.5,2.5 0 0 1 9.5,-2.5 9.5,2.5 0 0 1 9.5,2.5 z" />
    <path
       id="path5173-2-6-01"
       style="fill:#666666;stroke:#000000;stroke-width:0.5;stroke-linecap:round;stroke-linejoin:round;stroke-miterlimit:4;stroke-dasharray:none;stroke-opacity:1"
       d="m 47.912499,21.838142 a 9.5,2.5 0 0 1 -9.5,2.5 9.5,2.5 0 0 1 -9.5,-2.5 9.5,2.5 0 0 1 9.5,-2.5 9.5,2.5 0 0 1 9.5,2.5 z" />
    <path
       id="path5173-5-4"
       style="fill:#666666;stroke:#000000;stroke-width:0.5;stroke-linecap:round;stroke-linejoin:round;stroke-miterlimit:4;stroke-dasharray:none;stroke-opacity:1"
       d="m 47.912499,28.684295 a 9.5,2.5 0 0 1 -9.5,2.5 9.5,2.5 0 0 1 -9.5,-2.5 9.5,2.5 0 0 1 9.5,-2.5 9.5,2.5 0 0 1 9.5,2.5 z" />
    <path
       id="path5173-2-5-3"
       style="fill:#666666;stroke:#000000;stroke-width:0.5;stroke-linecap:round;stroke-linejoin:round;stroke-miterlimit:4;stroke-dasharray:none;stroke-opacity:1"
       d="m 47.912499,35.530448 a 9.5,2.5 0 0 1 -9.5,2.5 9.5,2.5 0 0 1 -9.5,-2.5 9.5,2.5 0 0 1 9.5,-2.5 9.5,2.5 0 0 1 9.5,2.5 z" />
    <path
       id="path5173-2-6-0-6"
       style="fill:#666666;stroke:#000000;stroke-width:0.5;stroke-linecap:round;stroke-linejoin:round;stroke-miterlimit:4;stroke-dasharray:none;stroke-opacity:1"
       d="m 47.912499,42.376601 a 9.5,2.5 0 0 1 -9.5,2.5 9.5,2.5 0 0 1 -9.5,-2.5 9.5,2.5 0 0 1 9.5,-2.5 9.5,2.5 0 0 1 9.5,2.5 z" />
    <path
       id="path5177-3-3"
       style="fill:#666666;stroke:#000000;stroke-width:0.5;stroke-linecap:butt;stroke-linejoin:miter;stroke-miterlimit:4;stroke-dasharray:none;stroke-opacity:1"
       d="m 89.179191,10.645986 c 0,-1.9999978 -4.000028,-4.0002078 -8.000028,-5.0002087 -4,1.0000009 -8.000029,3.0002109 -8.000029,5.0002087 v 5.999639 c 0,1.999998 4.000029,4.000211 8.000029,5.000209 4,-0.999998 8.000028,-3.000211 8.000028,-5.000209 z" />
    <path
       id="path5177-3-7"
       style="fill:#666666;stroke:#000000;stroke-width:0.5;stroke-linecap:butt;stroke-linejoin:miter;stroke-miterlimit:4;stroke-dasharray:none;stroke-opacity:1"
       d="m 69.17919,30.145963 c 0,-1.999999 -4.000028,-4.000209 -8.000028,-5.00021 -4,1.000001 -8.000029,3.000211 -8.000029,5.00021 v 5.999636 c 0,1.999998 4.000029,4.000211 8.000029,5.000209 4,-0.999998 8.000028,-3.000211 8.000028,-5.000209 z" />
    <path
       id="path5177-3-3-3"
       style="fill:#666666;stroke:#000000;stroke-width:0.5;stroke-linecap:butt;stroke-linejoin:miter;stroke-miterlimit:4;stroke-dasharray:none;stroke-opacity:1"
       d="m 89.179118,30.145994 c 0,-1.999998 -4.000028,-4.000208 -8.000028,-5.000209 -4,1.000001 -8.000029,3.000211 -8.000029,5.000209 v 5.999637 c 0,1.999998 4.000029,4.000211 8.000029,5.000209 4,-0.999998 8.000028,-3.000211 8.000028,-5.000209 z" />
  </g>
</svg>
