<?xml version="1.0" encoding="UTF-8" standalone="no"?>
<!-- Created with Inkscape (http://www.inkscape.org/) -->

<svg
   width="15cm"
   height="11cm"
   viewBox="0 0 150 110"
   version="1.1"
   id="svg5"
   inkscape:version="1.1.1 (3bf5ae0d25, 2021-09-20)"
   sodipodi:docname="DF65-HatchPatch.svg"
   xmlns:inkscape="http://www.inkscape.org/namespaces/inkscape"
   xmlns:sodipodi="http://sodipodi.sourceforge.net/DTD/sodipodi-0.dtd"
   xmlns="http://www.w3.org/2000/svg"
   xmlns:svg="http://www.w3.org/2000/svg">
  <sodipodi:namedview
     id="namedview7"
     pagecolor="#ffffff"
     bordercolor="#666666"
     borderopacity="1.0"
     inkscape:pageshadow="2"
     inkscape:pageopacity="0.0"
     inkscape:pagecheckerboard="0"
     inkscape:document-units="mm"
     showgrid="false"
     inkscape:object-paths="true"
     inkscape:snap-intersection-paths="true"
     inkscape:object-nodes="true"
     inkscape:snap-smooth-nodes="true"
     inkscape:snap-midpoints="true"
     inkscape:snap-bbox="true"
     inkscape:snap-global="true"
     inkscape:zoom="2.8767424"
     inkscape:cx="434.69308"
     inkscape:cy="207.87402"
     inkscape:window-width="3440"
     inkscape:window-height="1369"
     inkscape:window-x="-8"
     inkscape:window-y="-8"
     inkscape:window-maximized="1"
     inkscape:current-layer="g866"
     units="cm">
    <inkscape:grid
       type="xygrid"
       id="grid836"
       units="cm"
       spacingx="0.99999999"
       spacingy="0.99999999" />
  </sodipodi:namedview>
  <defs
     id="defs2" />
  <g
     inkscape:label="Hatch Patch"
     inkscape:groupmode="layer"
     id="g866"
     style="display:inline">
    <path
       id="path854-7"
       style="display:inline;opacity:1;fill:#666666;stroke:#000000;stroke-width:0.586176;stroke-linecap:round;stroke-linejoin:round;stroke-miterlimit:4;stroke-dasharray:none;stroke-opacity:1"
       d="m 145.5,14.000002 c 1e-5,-2.77 -2.23142,-4.9116415 -5,-5.0000006 -94.000001,-3 -109.000002,-3 -125.000002,-3 -6.2606705,0 -11.0000006,29.0000006 -11.0000006,48.9999996 0,20 4,48.999999 11.0000006,48.999999 16,0 31.000001,0 125.000002,-3 2.7686,-0.0884 4.99969,-2.230214 4.9997,-5.000214 z m -20.00019,16.00034 v 50.16696 c 0,1.661995 -1.33781,3.000325 -2.99981,3.000325 H 29.499976 c -1.66199,0 -3.00033,-1.33833 -3.00033,-3.000325 v -50.16696 c 0,-1.662 1.33834,-3.00034 3.00033,-3.00034 H 122.5 c 1.662,0 2.99981,1.33834 2.99981,3.00034 z"
       sodipodi:nodetypes="sscscssssssssssss" />
    <g
       id="g856"
       transform="translate(-40,-39.0003)"
       style="stroke:#000000;stroke-opacity:1" />
    <g
       id="g860"
       transform="matrix(-1,0,0,1,160,-39.0003)"
       style="stroke:#000000;stroke-opacity:1" />
  </g>
</svg>
