<?xml version="1.0" encoding="UTF-8" standalone="no"?>
<svg
   width="14cm"
   height="66cm"
   viewBox="0 0 140 659.99995"
   version="1.1"
   id="svg8"
   inkscape:version="1.1.1 (3bf5ae0d25, 2021-09-20)"
   sodipodi:docname="DF65-HullPatch.svg"
   xmlns:inkscape="http://www.inkscape.org/namespaces/inkscape"
   xmlns:sodipodi="http://sodipodi.sourceforge.net/DTD/sodipodi-0.dtd"
   xmlns="http://www.w3.org/2000/svg"
   xmlns:svg="http://www.w3.org/2000/svg"
   xmlns:rdf="http://www.w3.org/1999/02/22-rdf-syntax-ns#"
   xmlns:cc="http://creativecommons.org/ns#"
   xmlns:dc="http://purl.org/dc/elements/1.1/">
  <defs
     id="defs2">
    <clipPath
       clipPathUnits="userSpaceOnUse"
       id="clipPath851">
      <path
         d="M 0,0 H 2016 V 305 H 0 Z"
         id="path849" />
    </clipPath>
    <clipPath
       clipPathUnits="userSpaceOnUse"
       id="clipPath855">
      <path
         d="M 0,0 H 2016 V 305 H 0 Z"
         id="path853" />
    </clipPath>
    <clipPath
       clipPathUnits="userSpaceOnUse"
       id="clipPath2686">
      <path
         d="m 49.34619,536.15204 h 538.58277 v 31.93402 H 49.34619 Z"
         id="path2684" />
    </clipPath>
  </defs>
  <sodipodi:namedview
     id="base"
     pagecolor="#ffffff"
     bordercolor="#666666"
     borderopacity="1.0"
     inkscape:pageopacity="0.0"
     inkscape:pageshadow="2"
     inkscape:zoom="1.0065506"
     inkscape:cx="1322.8346"
     inkscape:cy="283.14523"
     inkscape:document-units="mm"
     inkscape:current-layer="layer1"
     inkscape:document-rotation="0"
     showgrid="false"
     units="cm"
     inkscape:window-width="3440"
     inkscape:window-height="1369"
     inkscape:window-x="-8"
     inkscape:window-y="-8"
     inkscape:window-maximized="1"
     inkscape:pagecheckerboard="0" />
  <metadata
     id="metadata5">
    <rdf:RDF>
      <cc:Work
         rdf:about="">
        <dc:format>image/svg+xml</dc:format>
        <dc:type
           rdf:resource="http://purl.org/dc/dcmitype/StillImage" />
      </cc:Work>
    </rdf:RDF>
  </metadata>
  <g
     inkscape:label="Seitenteil"
     inkscape:groupmode="layer"
     id="layer1"
     style="display:inline">
    <g
       id="g1200"
       transform="rotate(90,70.414664,70.258465)">
      <path
         style="display:inline;fill:#ffcc00;stroke:#000000;stroke-width:0.4;stroke-linecap:butt;stroke-linejoin:miter;stroke-miterlimit:4;stroke-dasharray:none;stroke-opacity:1"
         d="m 604.90022,39.565524 18.73543,0.28079 c 8.41025,0.25259 13.39279,3.37503 17.87276,7.32339 l 12.68014,13.30406 c 0.53935,0.56588 0.62462,0.94362 0.67747,1.60969 l 0.0303,3.947871 c 0.15421,2.01468 -3.78558,2.14578 -7.18499,2.14577 l -640.8180635,-0.004 -1.476,-61.9985169 C 204.04364,23.928844 401.71636,35.519684 604.90022,39.565954 Z"
         id="path4007-1"
         sodipodi:nodetypes="cccccccccc" />
      <path
         style="display:inline;fill:#ffcc00;stroke:#000000;stroke-width:0.4;stroke-linecap:butt;stroke-linejoin:miter;stroke-miterlimit:4;stroke-dasharray:none;stroke-opacity:1"
         d="m 604.90022,101.7807 18.73543,-0.28079 c 8.41025,-0.25259 13.39279,-3.375043 17.87276,-7.323427 l 12.68014,-13.304057 c 0.53935,-0.56588 0.62462,-0.94362 0.67747,-1.60969 l 0.0303,-3.947871 c 0.15421,-2.01468 -3.78558,-2.14578 -7.18499,-2.14577 l -640.8180635,0.004 -1.476,61.998575 C 204.04364,117.41741 401.71636,105.82657 604.90022,101.78027 Z"
         id="path4007-1-7"
         sodipodi:nodetypes="cccccccccc" />
    </g>
    <g
       id="g843"
       transform="matrix(0.35277777,0,0,-0.35277777,-249.76666,201.87708)" />
    <g
       id="g847"
       transform="matrix(0.35277777,0,0,-0.35277777,-249.76666,201.87708)" />
  </g>
</svg>
