<?xml version="1.0" encoding="UTF-8" standalone="no"?>
<!-- Created with Inkscape (http://www.inkscape.org/) -->

<svg
   width="297mm"
   height="210mm"
   viewBox="0 0 297 210"
   version="1.1"
   id="svg5"
   inkscape:version="1.2.1 (9c6d41e410, 2022-07-14)"
   sodipodi:docname="DF65-PatchSet-V2-Cut1.svg"
   inkscape:export-filename="DF65-PatchSet-V2.png"
   inkscape:export-xdpi="90"
   inkscape:export-ydpi="90"
   xmlns:inkscape="http://www.inkscape.org/namespaces/inkscape"
   xmlns:sodipodi="http://sodipodi.sourceforge.net/DTD/sodipodi-0.dtd"
   xmlns="http://www.w3.org/2000/svg"
   xmlns:svg="http://www.w3.org/2000/svg">
  <sodipodi:namedview
     id="namedview7"
     pagecolor="#ffffff"
     bordercolor="#666666"
     borderopacity="1.0"
     inkscape:pageshadow="2"
     inkscape:pageopacity="0.0"
     inkscape:pagecheckerboard="0"
     inkscape:document-units="mm"
     showgrid="false"
     inkscape:zoom="0.81185307"
     inkscape:cx="328.26137"
     inkscape:cy="422.49024"
     inkscape:window-width="3440"
     inkscape:window-height="1369"
     inkscape:window-x="-8"
     inkscape:window-y="-8"
     inkscape:window-maximized="1"
     inkscape:current-layer="g847"
     inkscape:snap-global="true"
     inkscape:snap-smooth-nodes="true"
     inkscape:object-nodes="true"
     inkscape:snap-intersection-paths="true"
     inkscape:snap-nodes="true"
     inkscape:snap-bbox="true"
     inkscape:object-paths="true"
     units="cm"
     inkscape:snap-midpoints="true"
     inkscape:showpageshadow="2"
     inkscape:deskcolor="#d1d1d1">
    <inkscape:grid
       type="xygrid"
       id="grid18738"
       units="mm"
       spacingx="1"
       spacingy="1"
       originx="0"
       originy="0" />
  </sodipodi:namedview>
  <defs
     id="defs2">
    <linearGradient
       id="linearGradient3316"
       inkscape:swatch="solid">
      <stop
         style="stop-color:#ffcc00;stop-opacity:1;"
         offset="0"
         id="stop3314" />
    </linearGradient>
    <clipPath
       clipPathUnits="userSpaceOnUse"
       id="clipPath2171">
      <g
         id="g2185"
         transform="matrix(2.8346458,0,0,-2.8346458,20.999048,846.97536)">
        <g
           id="g2183">
          <g
             id="g2181">
            <g
               id="g2179">
              <g
                 id="g2177"
                 transform="translate(-9.9997284,6.6759117)">
                <g
                   id="g2175">
                  <path
                     d="M 9.9997306,284.70935 H 219.99973 V -12.290646 H 9.9997306 Z"
                     id="path2173"
                     style="stroke-width:0.352778" />
                </g>
              </g>
            </g>
          </g>
        </g>
      </g>
    </clipPath>
    <clipPath
       clipPathUnits="userSpaceOnUse"
       id="clipPath252">
      <path
         d="m 48.24557,614.52203 v -97.80297 h 540.80045 v 97.80297 z"
         id="path250" />
    </clipPath>
    <clipPath
       clipPathUnits="userSpaceOnUse"
       id="clipPath260">
      <path
         d="m 48.24557,516.71906 h 540.80045 v 97.80297 H 48.24557 Z"
         id="path258" />
    </clipPath>
    <clipPath
       clipPathUnits="userSpaceOnUse"
       id="clipPath268">
      <path
         d="m 386.263,613.50403 c -25.035,-0.016 -69.99499,-0.586 -92.465,-1.40497 v 0 c -25.24404,-0.91998 -84.81501,-4.64203 -129.315,-13 v 0 C 133.79799,593.33405 94.2422,584.18005 56.38181,569.79407 v 0 l -0.85202,0.10595 -0.74662,-0.21398 -0.85196,-0.42499 -1.49221,-0.85199 -1.0669,-0.85401 -0.95901,-0.85205 -0.6402,-1.06598 -0.4267,-1.27899 0.1069,-0.95801 0.42679,-0.95898 1.06491,-1.17297 1.1734,-0.85199 1.59858,-0.95905 1.81302,-0.64001 0.74609,-0.10596 c 0,0 57.24411,-18.88904 102.55711,-27.06799 v 0 c 0,0 62.56101,-11.49207 126.65001,-12.78705 v 0 c 0,0 76.39697,-2.29798 134.32599,0.10602 v 0 c 0,0 95.87204,3.83599 152.76804,14.59997 v 0 l 5.54394,1.172 3.09204,1.06604 2.77198,0.95898 2.02502,1.172 1.38599,1.38501 0.53399,0.85303 -0.21399,1.70501 -0.74701,19.28797 -0.21197,1.81097 -0.42694,0.74604 -0.10706,1.06597 0.32001,0.42603 0.10699,1.172 v 1.38598 l -0.64001,0.85199 -0.21301,1.91901 0.53308,0.42499 v 19.60803 l 0.53284,0.42596 0.53308,0.42701 0.32,0.74499 -0.21307,1.06598 -0.53394,0.74603 -0.95898,0.53302 -1.1731,1.065 -1.49194,0.95997 -1.91894,1.17102 -2.23804,0.854 -2.453,0.85199 -3.73096,1.06598 c 0,0 -39.30103,6.62903 -82.94007,9.48407 v 0 c -29.69995,1.94195 -65.625,3.32397 -95.52099,3.51593 v 0 c -1.828,0.012 -3.87396,0.0181 -6.10901,0.02 v 0 H 386.263 Z"
         id="path266" />
    </clipPath>
    <clipPath
       clipPathUnits="userSpaceOnUse"
       id="clipPath276">
      <path
         d="M 0,1 V 0 h 1 v 1 z"
         id="path274" />
    </clipPath>
  </defs>
  <g
     inkscape:label="Deck Patch V2.1"
     inkscape:groupmode="layer"
     id="g847"
     style="display:inline;opacity:1"
     transform="translate(-5.0841, -0.317427)">
    <g
       id="g1731"
       transform="translate(3.09289, -3.34678)"
       style="fill:#ffcc00;stroke-width:0.5;stroke-dasharray:none" />
    <g
       id="g1735"
       style="stroke-width:0.5;stroke-dasharray:none" />
    <g
       id="g354"
       transform="matrix(6.12303e-17 1 -1 6.12303e-17 302.588 -3.327)">
      <path
         id="path12564-6-0-7-2"
         style="display:inline;fill:#4d4d4d;stroke:#ff0000;stroke-width:0.5;stroke-linecap:butt;stroke-linejoin:miter;stroke-miterlimit:4;stroke-dasharray:none;stroke-opacity:1"
         d="m 58.689013,78.12028 0.03204,0.001 c 0.83434,0.026 1.408988,0.53648 1.903759,1.1281 0.494771,0.59162 0.94307,1.35686 1.389578,2.28669 0.893033,1.85965 1.757993,4.37943 2.529563,7.28486 1.54315,5.81084 2.697088,13.13753 2.643248,19.49601 v 3.30416 l 0.0011,136.32191 h 0.0011 v 1.00201 c 0,4.68257 -3.817687,8.50077 -8.500259,8.50077 -4.682569,0 -8.499765,-3.81806 -8.498705,-8.50077 l 5.3e-4,-137.32392 v -3.30419 c -0.0538,-6.35848 1.1001,-13.68516 2.643251,-19.49601 0.77157,-2.90543 1.63653,-5.42519 2.529559,-7.28486 0.446511,-0.92982 0.89481,-1.69506 1.389581,-2.28668 0.49476,-0.59162 1.069946,-1.10168 1.904275,-1.1281 z M 58.133372,2.8632272 h -0.99942 -0.50023 -0.50023 c -0.83323,0 -1.89404,1.051032 -2.1115,1.835548 C 32.482922,82.40587 15.049372,142.17783 9.1328118,284.86309 l -0.29713,7.72925 c -0.11526,3.00037 2.8731802,2.88605 5.3738302,2.02245 l 19.51612,-6.74016 c 1.30344,-0.45013 2.90277,-1.56556 2.90577,-2.94452 l 0.002,-0.067 c 0.02694,-12.15024 9.84995,-21.99968 22.0002,-21.99968 0.0279,0 0.0558,5e-5 0.02746,-10e-4 -0.02835,-0.001 -4.49e-4,-0.001 0.02746,-0.001 12.150248,0 21.973267,9.84946 22.000207,21.99968 l 0.0016,0.067 c 0.003,1.37896 1.602327,2.49439 2.905768,2.94453 l 19.516143,6.74015 c 2.50066,0.8636 5.4891,0.97793 5.37383,-2.02245 l -0.29713,-7.72924 C 102.27278,142.17523 84.839201,82.40327 63.30013,4.6961752 63.082675,3.9116592 62.021862,2.8606272 61.188631,2.8606272 h -0.500226 -0.50023 -0.999421 l -0.527695,0.0013 z M 33.248219,241.39752 c 3.866062,-6e-5 7.000139,3.13402 7.000089,7.00008 5e-5,3.86606 -3.134027,7.00014 -7.000089,7.00009 -3.866063,5e-5 -7.00014,-3.13403 -7.000089,-7.00009 -5.1e-5,-3.86606 3.134026,-7.00014 7.000089,-7.00008 v 0" />
      <path
         id="path858-1"
         style="display:inline;fill:#4d4d4d;stroke:#ff0000;stroke-width:0.5;stroke-linecap:round;stroke-linejoin:round;stroke-dasharray:none;stroke-opacity:1"
         d="m 141.45617,190.37423 c -1.662,0 -2.99982,1.33781 -2.99982,2.9998 v 55.99959 c 0,1.662 1.33782,2.99982 2.99982,2.99982 h 35.99987 c 1.662,0 3.00033,-1.33782 3.00033,-2.99982 v -55.99959 c 0,-1.66199 -1.33833,-2.9998 -3.00033,-2.9998 z m 17.99993,22.49981 a 10.5,8.4999996 0 0 1 1.49449,0.0863 10.5,8.4999996 0 0 1 1.46399,0.25787 10.5,8.4999996 0 0 1 1.40353,0.42374 10.5,8.4999996 0 0 1 1.30535,0.57671 10.5,8.4999996 0 0 1 0.0186,0.009 10.5,8.4999996 0 0 1 1.19011,0.72192 10.5,8.4999996 0 0 1 5.1e-4,0 10.5,8.4999996 0 0 1 1.05834,0.8568 10.5,8.4999996 0 0 1 0.001,9.9e-4 10.5,8.4999996 0 0 1 0.89762,0.97049 10.5,8.4999996 0 0 1 0.71778,1.06453 10.5,8.4999996 0 0 1 0.52348,1.13585 10.5,8.4999996 0 0 1 0.31833,1.18391 10.5,8.4999996 0 0 1 5.2e-4,0.003 10.5,8.4999996 0 0 1 0.10645,1.20871 10.5,8.4999996 0 0 1 -0.10645,1.20871 10.5,8.4999996 0 0 1 -5.2e-4,0.003 10.5,8.4999996 0 0 1 -0.31833,1.18391 10.5,8.4999996 0 0 1 -0.52348,1.13584 10.5,8.4999996 0 0 1 -0.71778,1.06454 10.5,8.4999996 0 0 1 -0.89762,0.97048 10.5,8.4999996 0 0 1 -0.001,0.001 10.5,8.4999996 0 0 1 -1.05834,0.8568 10.5,8.4999996 0 0 1 -5.1e-4,0 10.5,8.4999996 0 0 1 -1.19011,0.72191 10.5,8.4999996 0 0 1 -0.0186,0.009 10.5,8.4999996 0 0 1 -1.30535,0.57672 10.5,8.4999996 0 0 1 -1.40353,0.42374 10.5,8.4999996 0 0 1 -1.46399,0.25787 10.5,8.4999996 0 0 1 -1.49449,0.0863 10.5,8.4999996 0 0 1 -4.36149,-0.76791 10.5,8.4999996 0 0 1 -2.06189,-1.03353 10.5,8.4999996 0 0 1 -0.45216,-0.27441 10.5,8.4999996 0 0 1 -5.2e-4,0 10.5,8.4999996 0 0 1 -0.85731,-0.69401 10.5,8.4999996 0 0 1 -0.20206,-0.16381 10.5,8.4999996 0 0 1 -0.89762,-0.97049 10.5,8.4999996 0 0 1 -1.24127,-2.20038 10.5,8.4999996 0 0 1 -0.23306,-0.86713 10.5,8.4999996 0 0 1 -0.0858,-0.31884 10.5,8.4999996 0 0 1 -0.10697,-1.20923 10.5,8.4999996 0 0 1 0.10697,-1.20975 10.5,8.4999996 0 0 1 0.0858,-0.31832 10.5,8.4999996 0 0 1 0.23306,-0.86713 10.5,8.4999996 0 0 1 1.24127,-2.20039 10.5,8.4999996 0 0 1 0.89814,-0.971 10.5,8.4999996 0 0 1 0.20154,-0.1633 10.5,8.4999996 0 0 1 1.30999,-0.96841 10.5,8.4999996 0 0 1 2.06189,-1.03353 10.5,8.4999996 0 0 1 4.36149,-0.76791 z" />
      <path
         id="path854-7"
         style="display:inline;fill:#4d4d4d;stroke:#ff0000;stroke-width:0.5;stroke-linecap:round;stroke-linejoin:round;stroke-miterlimit:4;stroke-dasharray:none;stroke-opacity:1"
         d="m 200.45636,291.87388 c 2.77,1e-5 4.91164,-2.23142 5,-5 3,-94 3,-109 3,-125.00006 0,-6.26069 -29,-11.00003 -49,-11.00003 -20,0 -49,4.00001 -49,11.00003 0,16.00006 0,31.00006 3,125.00006 0.0884,2.7686 2.23022,4.99969 5.00022,4.9997 z m -16.00034,-20.00019 h -50.16696 c -1.662,0 -3.00032,-1.33781 -3.00032,-2.99981 v -93.00002 c 0,-1.662 1.33832,-3.00035 3.00032,-3.00035 h 50.16696 c 1.662,0 3.00034,1.33835 3.00034,3.00035 v 93.00002 c 0,1.662 -1.33834,2.99981 -3.00034,2.99981 z"
         sodipodi:nodetypes="sscscssssssssssss" />
      <path
         id="path854-7-9"
         style="display:inline;fill:#4d4d4d;stroke:#ff0000;stroke-width:0.5;stroke-linecap:round;stroke-linejoin:round;stroke-miterlimit:4;stroke-dasharray:none;stroke-opacity:1"
         d="m 200.45636,147.60736 c 2.77,1e-5 4.91164,-2.23142 5,-5 3,-93.999999 3,-108.999999 3,-125.000061 0,-6.26069 -29,-11.0000299 -49,-11.0000299 -20,0 -49,4.0000099 -49,11.0000299 0,16.000062 0,31.000062 3,125.000061 0.0884,2.7686 2.23022,4.99969 5.00022,4.9997 z m -16.00034,-20.00019 h -50.16696 c -1.662,0 -3.00032,-1.33781 -3.00032,-2.99981 V 31.607341 c 0,-1.662 1.33832,-3.00035 3.00032,-3.00035 h 50.16696 c 1.662,0 3.00034,1.33835 3.00034,3.00035 v 93.000019 c 0,1.662 -1.33834,2.99981 -3.00034,2.99981 z"
         sodipodi:nodetypes="sscscssssssssssss" />
    </g>
  </g>
</svg>
