<?xml version="1.0" encoding="UTF-8" standalone="no"?>
<svg
   width="70cm"
   height="15cm"
   viewBox="0 0 700 149.99999"
   version="1.1"
   id="svg8"
   inkscape:version="1.1.1 (3bf5ae0d25, 2021-09-20)"
   sodipodi:docname="DF65-HullPatchDesign.svg"
   xmlns:inkscape="http://www.inkscape.org/namespaces/inkscape"
   xmlns:sodipodi="http://sodipodi.sourceforge.net/DTD/sodipodi-0.dtd"
   xmlns="http://www.w3.org/2000/svg"
   xmlns:svg="http://www.w3.org/2000/svg"
   xmlns:rdf="http://www.w3.org/1999/02/22-rdf-syntax-ns#"
   xmlns:cc="http://creativecommons.org/ns#"
   xmlns:dc="http://purl.org/dc/elements/1.1/">
  <defs
     id="defs2">
    <clipPath
       clipPathUnits="userSpaceOnUse"
       id="clipPath851">
      <path
         d="M 0,0 H 2016 V 305 H 0 Z"
         id="path849" />
    </clipPath>
    <clipPath
       clipPathUnits="userSpaceOnUse"
       id="clipPath855">
      <path
         d="M 0,0 H 2016 V 305 H 0 Z"
         id="path853" />
    </clipPath>
    <clipPath
       clipPathUnits="userSpaceOnUse"
       id="clipPath2686">
      <path
         d="m 49.34619,536.15204 h 538.58277 v 31.93402 H 49.34619 Z"
         id="path2684" />
    </clipPath>
  </defs>
  <sodipodi:namedview
     id="base"
     pagecolor="#ffffff"
     bordercolor="#666666"
     borderopacity="1.0"
     inkscape:pageopacity="0.0"
     inkscape:pageshadow="2"
     inkscape:zoom="1.0065506"
     inkscape:cx="1322.8346"
     inkscape:cy="283.14523"
     inkscape:document-units="mm"
     inkscape:current-layer="layer1"
     inkscape:document-rotation="0"
     showgrid="false"
     units="cm"
     inkscape:window-width="3440"
     inkscape:window-height="1369"
     inkscape:window-x="-8"
     inkscape:window-y="-8"
     inkscape:window-maximized="1"
     inkscape:pagecheckerboard="0" />
  <metadata
     id="metadata5">
    <rdf:RDF>
      <cc:Work
         rdf:about="">
        <dc:format>image/svg+xml</dc:format>
        <dc:type
           rdf:resource="http://purl.org/dc/dcmitype/StillImage" />
      </cc:Work>
    </rdf:RDF>
  </metadata>
  <g
     inkscape:label="Seitenteil"
     inkscape:groupmode="layer"
     id="layer1"
     style="display:inline">
    <path
       style="display:inline;fill:#ffcc00;stroke:#000000;stroke-width:0.4;stroke-linecap:butt;stroke-linejoin:miter;stroke-miterlimit:4;stroke-dasharray:none;stroke-opacity:1"
       d="m 622.7748,75.314679 18.73543,0.28079 c 8.41025,0.25259 13.39279,3.37503 17.87276,7.32339 l 12.68014,13.30406 c 0.53935,0.56588 0.62462,0.94362 0.67747,1.60969 l 0.0303,3.947871 c 0.15421,2.01468 -3.78558,2.14578 -7.18499,2.14577 l -640.818066,-0.004 -1.476,-61.998517 C 221.91822,59.677999 419.59094,71.268839 622.7748,75.315109 Z"
       id="path4007-1"
       sodipodi:nodetypes="cccccccccc" />
    <g
       id="g843"
       transform="matrix(0.35277777,0,0,-0.35277777,-249.76666,201.87708)" />
    <g
       id="g847"
       transform="matrix(0.35277777,0,0,-0.35277777,-249.76666,201.87708)" />
  </g>
  <g
     inkscape:label="Beschriftung"
     inkscape:groupmode="layer"
     id="g897"
     style="display:inline">
    <g
       id="g853"
       transform="matrix(0.35277777,0,0,-0.35277777,-249.76666,201.87708)" />
    <g
       id="g855"
       transform="matrix(0.35277777,0,0,-0.35277777,-249.76666,201.87708)" />
    <g
       id="g887"
       transform="matrix(1.5288734,0,0,1.5288734,206.9454,-95.795678)"
       style="fill:#4d4d4d">
      <g
         id="g861"
         transform="matrix(0.35277777,0,0,-0.35277777,-6.2169872,315.83124)"
         style="fill:#4d4d4d">
        <g
           id="g859"
           clip-path="url(#clipPath2686)"
           style="fill:#4d4d4d">
          <path
             d="M 85.9214,542.93805 H 56.81448 c -4.64117,0 -7.46829,2.59399 -6.30618,5.78802 l 2.47119,6.78693 c 1.16208,3.19305 5.8779,5.78803 10.51901,5.78803 h 19.82279 l -1.74271,-4.78998 H 60.30417 l -3.19577,-8.78101 h 23.5952 l 7.4097,20.357 h 6.9619 z"
             style="fill:#4d4d4d;fill-opacity:1;fill-rule:nonzero;stroke:none"
             id="path857" />
        </g>
      </g>
      <path
         d="m 39.499128,121.33743 h -2.456043 l 0.666401,-1.83057 h -8.323442 l -1.742934,4.78791 h -2.45618 l 2.357656,-6.47771 h 10.267915 c 1.637587,0 2.63489,0.91511 2.224966,2.04154 z"
         style="fill:#4d4d4d;fill-opacity:1;fill-rule:nonzero;stroke:none;stroke-width:0.352778"
         id="path863" />
      <path
         d="M 52.478178,124.29477 H 41.766787 c -1.654528,0 -2.634552,-0.91511 -2.224624,-2.04189 0.410284,-1.1264 2.056698,-2.04221 3.711229,-2.04221 h 7.436196 l -0.614885,1.69014 H 42.12626 l -0.256109,0.70345 h 8.767229 l 1.127478,-3.09775 h -10.77983 l 0.614891,-1.6898 h 10.268306 c 1.637588,0 2.634898,0.91546 2.224613,2.04189 z"
         style="fill:#4d4d4d;fill-opacity:1;fill-rule:nonzero;stroke:none;stroke-width:0.352778"
         id="path865" />
      <path
         d="m 66.678535,124.64683 c -0.409928,1.12644 -2.073625,2.04152 -3.711212,2.04152 H 52.699366 l 0.615245,-1.68979 h 10.779827 l 1.998845,-5.49205 h -8.323438 l -1.127475,3.09775 h 7.504638 l -0.615251,1.69051 H 56.53865 c -1.637245,0 -2.634195,-0.91511 -2.224623,-2.04153 l 0.871364,-2.39464 c 0.410284,-1.12678 2.073635,-2.04189 3.710873,-2.04189 H 69.16456 Z"
         style="fill:#4d4d4d;fill-opacity:1;fill-rule:nonzero;stroke:none;stroke-width:0.352778"
         id="path867" />
      <path
         d="m 79.294577,122.6046 1.127128,-3.09774 h -8.323093 l -1.127827,3.09774 z m 2.583741,-0.35207 c -0.409219,1.12679 -2.073621,2.0426 -3.711212,2.0426 h -7.300041 c -1.637238,0 -2.634541,-0.91581 -2.224616,-2.0426 l 0.871368,-2.39393 c 0.410273,-1.12643 2.073627,-2.04189 3.711218,-2.04189 h 7.300034 c 1.637591,0 2.634894,0.91546 2.224617,2.04189 z"
         style="fill:#4d4d4d;fill-opacity:1;fill-rule:nonzero;stroke:none;stroke-width:0.352778"
         id="path869" />
      <path
         d="m 95.463786,124.29477 h -2.456028 l 1.742722,-4.78826 h -8.323791 l -1.742723,4.78826 H 82.22828 l 2.357607,-6.47806 h 10.267957 c 1.637584,0 2.634883,0.91546 2.224606,2.04189 z"
         style="fill:#4d4d4d;fill-opacity:1;fill-rule:nonzero;stroke:none;stroke-width:0.352778"
         id="path871" />
      <path
         d="m 110.40746,122.6046 h -9.96104 l 0.61524,-1.68943 h 9.96069 z m 1.12713,-3.09774 h -10.77948 l -2.614086,7.18186 h -2.45605 l 2.486389,-6.83012 c 0.409567,-1.12643 2.073637,-2.04189 3.710157,-2.04189 h 10.26832 z"
         style="fill:#4d4d4d;fill-opacity:1;fill-rule:nonzero;stroke:none;stroke-width:0.352778"
         id="path873" />
      <path
         d="m 122.00714,122.6046 1.12748,-3.09774 h -8.32378 l -1.12748,3.09774 z m 2.58376,-0.35207 c -0.40923,1.12679 -2.07365,2.0426 -3.71088,2.0426 h -7.30038 c -1.63725,0 -2.63419,-0.91581 -2.22427,-2.0426 l 0.87137,-2.39393 c 0.40991,-1.12643 2.07327,-2.04189 3.71122,-2.04189 h 7.29968 c 1.63795,0 2.63489,0.91546 2.22497,2.04189 z"
         style="fill:#4d4d4d;fill-opacity:1;fill-rule:nonzero;stroke:none;stroke-width:0.352778"
         id="path875" />
      <path
         d="m 139.25234,121.33743 h -2.45569 l 0.66639,-1.83057 h -8.32378 l -1.74238,4.78791 h -2.45638 l 2.3576,-6.47771 h 10.26796 c 1.63759,0 2.6349,0.91511 2.22497,2.04154 z"
         style="fill:#4d4d4d;fill-opacity:1;fill-rule:nonzero;stroke:none;stroke-width:0.352778"
         id="path877" />
      <path
         d="m 152.23174,124.29477 h -10.26831 c -1.63759,0 -2.63455,-0.91511 -2.22497,-2.04189 l 0.87137,-2.39428 c 0.41027,-1.12643 2.07468,-2.04189 3.71157,-2.04189 h 10.26829 l -0.61523,1.6898 h -10.77983 l -1.12748,3.09775 h 10.77984 z"
         style="fill:#4d4d4d;fill-opacity:1;fill-rule:nonzero;stroke:none;stroke-width:0.352778"
         id="path879" />
      <path
         d="m 166.2871,124.29477 h -10.26794 c -1.6376,0 -2.63455,-0.91511 -2.22497,-2.04189 l 0.8717,-2.39428 c 0.41029,-1.12643 2.07364,-2.04189 3.71124,-2.04189 h 7.30038 c 1.63724,0 2.63453,0.91546 2.22426,2.04189 l -0.74294,2.04221 h -9.96069 l 0.61489,-1.69014 h 7.50464 l 0.25648,-0.70416 h -8.32416 l -1.12713,3.09775 h 10.77949 z"
         style="fill:#4d4d4d;fill-opacity:1;fill-rule:nonzero;stroke:none;stroke-width:0.352778"
         id="path881" />
      <path
         d="m 182.42386,124.29477 h -7.29968 c -1.63759,0 -2.63453,-0.91511 -2.22497,-2.04189 l 0.87172,-2.39428 c 0.40994,-1.12643 2.07362,-2.04189 3.71088,-2.04189 h 9.82414 l -0.61452,1.6898 h -10.33675 l -1.12678,3.09775 h 8.32309 l 0.25612,-0.70345 h -7.50466 l 0.6149,-1.69014 h 6.99311 c 1.63793,0 2.63492,0.91581 2.22498,2.04221 -0.40993,1.12678 -2.07363,2.04189 -3.71158,2.04189"
         style="fill:#4d4d4d;fill-opacity:1;fill-rule:nonzero;stroke:none;stroke-width:0.352778"
         id="path883" />
      <path
         d="m 196.30921,124.29477 h -10.26834 l 0.61564,-1.69051 h 10.77944 l 0.25649,-0.70345 h -10.77983 l 1.48625,-4.0841 h 12.79242 l -0.61491,1.6898 h -10.33636 l -0.25576,0.70416 h 7.81154 c 1.63726,0 2.63421,0.91581 2.22429,2.04221 -0.40993,1.12678 -2.07363,2.04189 -3.71087,2.04189"
         style="fill:#4d4d4d;fill-opacity:1;fill-rule:nonzero;stroke:none;stroke-width:0.352778"
         id="path885" />
    </g>
    <g
       aria-label="497"
       id="g895"
       style="font-size:10.5833px;line-height:1.25;font-family:'Segoe Script';-inkscape-font-specification:'Segoe Script';fill:#4d4d4d;stroke-width:0.264583"
       transform="matrix(4.9119489,0,0,4.9119489,-489.9551,270.03341)">
      <path
         d="m 109.22826,-36.274876 h 1.07949 v -1.121829 h 0.51858 v -1.015997 h -0.51858 v -2.14841 h -1.07949 v 2.14841 h -1.06892 l 1.61925,-5.397483 h -1.143 l -1.55574,5.397483 v 1.015997 h 2.14841 z"
         style="font-family:DIN1451Engschrift;-inkscape-font-specification:DIN1451Engschrift;fill:#4d4d4d"
         id="path889" />
      <path
         d="m 111.673,-36.274876 h 1.20649 l 1.41816,-3.788821 q 0.127,-0.328082 0.15875,-0.603248 0.0423,-0.275166 0.0423,-0.941914 0,-0.730247 -0.0529,-1.005413 -0.0423,-0.275166 -0.20108,-0.529165 -0.21167,-0.338666 -0.5715,-0.529165 -0.34925,-0.201083 -0.78317,-0.201083 -0.44449,0 -0.80433,0.1905 -0.35983,0.190499 -0.56091,0.539748 -0.14817,0.253999 -0.20108,0.529165 -0.0423,0.275166 -0.0423,1.005413 0,0.486832 0.0106,0.761998 0.0106,0.275166 0.0318,0.455082 0.0423,0.306915 0.1905,0.539748 0.13758,0.211666 0.38099,0.349249 0.254,0.137583 0.52917,0.137583 0.3175,0 0.45508,-0.09525 l 0.0212,0.02117 z m 0.68791,-5.979564 q 0,-0.232833 0.15875,-0.380999 0.15875,-0.158749 0.37041,-0.158749 0.21167,0 0.37042,0.158749 0.15875,0.148166 0.15875,0.380999 v 1.396996 q 0,0.232832 -0.15875,0.391582 -0.15875,0.148166 -0.37042,0.148166 -0.21166,0 -0.37041,-0.148166 -0.15875,-0.15875 -0.15875,-0.391582 z"
         style="font-family:DIN1451Engschrift;-inkscape-font-specification:DIN1451Engschrift;fill:#4d4d4d"
         id="path891" />
      <path
         d="m 115.46181,-36.274876 h 1.143 l 1.83091,-6.455812 v -1.079497 h -3.21732 v 1.883827 h 0.95249 v -0.86783 h 1.18533 z"
         style="font-family:DIN1451Engschrift;-inkscape-font-specification:DIN1451Engschrift;fill:#4d4d4d"
         id="path893" />
    </g>
  </g>
</svg>
