<?xml version="1.0" encoding="UTF-8" standalone="no"?>
<!-- Created with Inkscape (http://www.inkscape.org/) -->

<svg
   width="297mm"
   height="210mm"
   viewBox="0 0 297 210"
   version="1.1"
   id="svg5"
   inkscape:version="1.2.1 (9c6d41e410, 2022-07-14)"
   sodipodi:docname="DF65-PatchSet-V2-Cut2.svg"
   inkscape:export-filename="DF65-PatchSet-V2.png"
   inkscape:export-xdpi="90"
   inkscape:export-ydpi="90"
   xmlns:inkscape="http://www.inkscape.org/namespaces/inkscape"
   xmlns:sodipodi="http://sodipodi.sourceforge.net/DTD/sodipodi-0.dtd"
   xmlns="http://www.w3.org/2000/svg"
   xmlns:svg="http://www.w3.org/2000/svg">
  <sodipodi:namedview
     id="namedview7"
     pagecolor="#ffffff"
     bordercolor="#666666"
     borderopacity="1.0"
     inkscape:pageshadow="2"
     inkscape:pageopacity="0.0"
     inkscape:pagecheckerboard="0"
     inkscape:document-units="mm"
     showgrid="false"
     inkscape:zoom="0.81185307"
     inkscape:cx="295.00412"
     inkscape:cy="422.49024"
     inkscape:window-width="3440"
     inkscape:window-height="1369"
     inkscape:window-x="-8"
     inkscape:window-y="-8"
     inkscape:window-maximized="1"
     inkscape:current-layer="g847"
     inkscape:snap-global="true"
     inkscape:snap-smooth-nodes="true"
     inkscape:object-nodes="true"
     inkscape:snap-intersection-paths="true"
     inkscape:snap-nodes="true"
     inkscape:snap-bbox="true"
     inkscape:object-paths="true"
     units="cm"
     inkscape:snap-midpoints="true"
     inkscape:showpageshadow="2"
     inkscape:deskcolor="#d1d1d1">
    <inkscape:grid
       type="xygrid"
       id="grid18738"
       units="mm"
       spacingx="1"
       spacingy="1"
       originx="0"
       originy="0" />
  </sodipodi:namedview>
  <defs
     id="defs2">
    <linearGradient
       id="linearGradient3316"
       inkscape:swatch="solid">
      <stop
         style="stop-color:#ffcc00;stop-opacity:1;"
         offset="0"
         id="stop3314" />
    </linearGradient>
    <clipPath
       clipPathUnits="userSpaceOnUse"
       id="clipPath2171">
      <g
         id="g2185"
         transform="matrix(2.8346458,0,0,-2.8346458,20.999048,846.97536)">
        <g
           id="g2183">
          <g
             id="g2181">
            <g
               id="g2179">
              <g
                 id="g2177"
                 transform="translate(-9.9997284,6.6759117)">
                <g
                   id="g2175">
                  <path
                     d="M 9.9997306,284.70935 H 219.99973 V -12.290646 H 9.9997306 Z"
                     id="path2173"
                     style="stroke-width:0.352778" />
                </g>
              </g>
            </g>
          </g>
        </g>
      </g>
    </clipPath>
    <clipPath
       clipPathUnits="userSpaceOnUse"
       id="clipPath252">
      <path
         d="m 48.24557,614.52203 v -97.80297 h 540.80045 v 97.80297 z"
         id="path250" />
    </clipPath>
    <clipPath
       clipPathUnits="userSpaceOnUse"
       id="clipPath260">
      <path
         d="m 48.24557,516.71906 h 540.80045 v 97.80297 H 48.24557 Z"
         id="path258" />
    </clipPath>
    <clipPath
       clipPathUnits="userSpaceOnUse"
       id="clipPath268">
      <path
         d="m 386.263,613.50403 c -25.035,-0.016 -69.99499,-0.586 -92.465,-1.40497 v 0 c -25.24404,-0.91998 -84.81501,-4.64203 -129.315,-13 v 0 C 133.79799,593.33405 94.2422,584.18005 56.38181,569.79407 v 0 l -0.85202,0.10595 -0.74662,-0.21398 -0.85196,-0.42499 -1.49221,-0.85199 -1.0669,-0.85401 -0.95901,-0.85205 -0.6402,-1.06598 -0.4267,-1.27899 0.1069,-0.95801 0.42679,-0.95898 1.06491,-1.17297 1.1734,-0.85199 1.59858,-0.95905 1.81302,-0.64001 0.74609,-0.10596 c 0,0 57.24411,-18.88904 102.55711,-27.06799 v 0 c 0,0 62.56101,-11.49207 126.65001,-12.78705 v 0 c 0,0 76.39697,-2.29798 134.32599,0.10602 v 0 c 0,0 95.87204,3.83599 152.76804,14.59997 v 0 l 5.54394,1.172 3.09204,1.06604 2.77198,0.95898 2.02502,1.172 1.38599,1.38501 0.53399,0.85303 -0.21399,1.70501 -0.74701,19.28797 -0.21197,1.81097 -0.42694,0.74604 -0.10706,1.06597 0.32001,0.42603 0.10699,1.172 v 1.38598 l -0.64001,0.85199 -0.21301,1.91901 0.53308,0.42499 v 19.60803 l 0.53284,0.42596 0.53308,0.42701 0.32,0.74499 -0.21307,1.06598 -0.53394,0.74603 -0.95898,0.53302 -1.1731,1.065 -1.49194,0.95997 -1.91894,1.17102 -2.23804,0.854 -2.453,0.85199 -3.73096,1.06598 c 0,0 -39.30103,6.62903 -82.94007,9.48407 v 0 c -29.69995,1.94195 -65.625,3.32397 -95.52099,3.51593 v 0 c -1.828,0.012 -3.87396,0.0181 -6.10901,0.02 v 0 H 386.263 Z"
         id="path266" />
    </clipPath>
    <clipPath
       clipPathUnits="userSpaceOnUse"
       id="clipPath276">
      <path
         d="M 0,1 V 0 h 1 v 1 z"
         id="path274" />
    </clipPath>
    <clipPath
       clipPathUnits="userSpaceOnUse"
       id="clipPath1502-8-3-3-64">
      <path
         d="M 0,595.276 H 841.89 V 0 H 0 Z"
         id="path1500-5-4-4-8" />
    </clipPath>
    <clipPath
       clipPathUnits="userSpaceOnUse"
       id="clipPath1502-8-3-3-64-2">
      <path
         d="M 0,595.276 H 841.89 V 0 H 0 Z"
         id="path1500-5-4-4-8-7" />
    </clipPath>
    <clipPath
       clipPathUnits="userSpaceOnUse"
       id="clipPath1502-8-3-3-64-5">
      <path
         d="M 0,595.276 H 841.89 V 0 H 0 Z"
         id="path1500-5-4-4-8-1" />
    </clipPath>
    <clipPath
       clipPathUnits="userSpaceOnUse"
       id="clipPath1502-8-3-3-64-2-5">
      <path
         d="M 0,595.276 H 841.89 V 0 H 0 Z"
         id="path1500-5-4-4-8-7-3" />
    </clipPath>
    <clipPath
       clipPathUnits="userSpaceOnUse"
       id="clipPath1502-8-3-3-64-4">
      <path
         d="M 0,595.276 H 841.89 V 0 H 0 Z"
         id="path1500-5-4-4-8-6" />
    </clipPath>
    <clipPath
       clipPathUnits="userSpaceOnUse"
       id="clipPath1502-8-3-3-64-2-6">
      <path
         d="M 0,595.276 H 841.89 V 0 H 0 Z"
         id="path1500-5-4-4-8-7-1" />
    </clipPath>
    <clipPath
       clipPathUnits="userSpaceOnUse"
       id="clipPath1502-8-3-3-64-8">
      <path
         d="M 0,595.276 H 841.89 V 0 H 0 Z"
         id="path1500-5-4-4-8-0" />
    </clipPath>
    <clipPath
       clipPathUnits="userSpaceOnUse"
       id="clipPath1502-8-3-3-64-2-2">
      <path
         d="M 0,595.276 H 841.89 V 0 H 0 Z"
         id="path1500-5-4-4-8-7-2" />
    </clipPath>
  </defs>
  <g
     inkscape:label="Deck Patch V2.1"
     inkscape:groupmode="layer"
     id="g847"
     style="display:inline;opacity:1"
     transform="translate(-5.0841, -0.317427)">
    <g
       id="g1731"
       transform="translate(3.09289, -3.34678)"
       style="fill:#ffcc00;stroke-width:0.5;stroke-dasharray:none" />
    <g
       id="g1735"
       style="stroke-width:0.5;stroke-dasharray:none" />
    <path
       id="path854-7"
       style="display:inline;fill:#4d4d4d;stroke:#ff0000;stroke-width:0.5;stroke-linecap:round;stroke-linejoin:round;stroke-miterlimit:4;stroke-dasharray:none;stroke-opacity:1"
       d="m 10.950795,197.12936 c -10e-6,2.77 2.23142,4.91164 5,5 94.000005,3 109.000005,3 125.000055,3 6.26069,0 11.00003,-29 11.00003,-49 0,-20 -4.00001,-49 -11.00003,-49 -16.00005,0 -31.00005,0 -125.000055,3 -2.7686,0.0884 -4.99969,2.23022 -4.9997,5.00022 z m 20.00019,-16.00034 v -50.16696 c 0,-1.662 1.33781,-3.00032 2.99981,-3.00032 h 93.000025 c 1.66199,0 3.00034,1.33832 3.00034,3.00032 v 50.16696 c 0,1.662 -1.33835,3.00034 -3.00034,3.00034 H 33.950795 c -1.662,0 -2.99981,-1.33834 -2.99981,-3.00034 z"
       sodipodi:nodetypes="sscscssssssssssss" />
    <path
       id="path854-7-9"
       style="display:inline;fill:#4d4d4d;stroke:#ff0000;stroke-width:0.5;stroke-linecap:round;stroke-linejoin:round;stroke-miterlimit:4;stroke-dasharray:none;stroke-opacity:1"
       d="m 155.21731,197.12936 c -1e-5,2.77 2.23142,4.91164 5,5 94,3 109,3 125.00006,3 6.2607,0 11.00003,-29 11.00003,-49 0,-20 -4.00001,-49 -11.00003,-49 -16.00006,0 -31.00005,0 -125.00006,3 -2.7686,0.0884 -4.99969,2.23022 -4.9997,5.00022 z m 20.00019,-16.00034 v -50.16696 c 0,-1.662 1.33781,-3.00032 2.99981,-3.00032 h 93.00002 c 1.662,0 3.00036,1.33832 3.00036,3.00032 v 50.16696 c 0,1.662 -1.33835,3.00034 -3.00036,3.00034 h -93.00002 c -1.662,0 -2.99981,-1.33834 -2.99981,-3.00034 z"
       sodipodi:nodetypes="sscscssssssssssss" />
    <path
       id="path854-7-2"
       style="display:inline;fill:#4d4d4d;stroke:#ff0000;stroke-width:0.5;stroke-linecap:round;stroke-linejoin:round;stroke-miterlimit:4;stroke-dasharray:none;stroke-opacity:1"
       d="m 296.21741,96.720519 c 1e-5,2.77 -2.23142,4.911641 -5,5.000001 -94,3 -109,3 -125.00006,3 -6.26069,0 -11.00003,-29.000001 -11.00003,-49.000001 0,-20 4.00001,-49.0000042 11.00003,-49.0000042 16.00006,0 31.00006,0 125.00006,3 2.7686,0.0884 4.99969,2.2302202 4.9997,5.0002202 z m -20.00019,-16.00034 v -50.16696 c 0,-1.662004 -1.33781,-3.000324 -2.99981,-3.000324 h -93.00002 c -1.662,0 -3.00035,1.33832 -3.00035,3.000324 v 50.16696 c 0,1.662 1.33835,3.00034 3.00035,3.00034 h 93.00002 c 1.662,0 2.99981,-1.33834 2.99981,-3.00034 z"
       sodipodi:nodetypes="sscscssssssssssss" />
    <path
       id="path854-7-9-8"
       style="display:inline;fill:#4d4d4d;stroke:#ff0000;stroke-width:0.5;stroke-linecap:round;stroke-linejoin:round;stroke-miterlimit:4;stroke-dasharray:none;stroke-opacity:1"
       d="m 151.95089,96.720519 c 1e-5,2.77 -2.23142,4.911641 -5,5.000001 -94.000007,3 -109.000007,3 -125.000066,3 -6.26069,0 -11.000031,-29.000001 -11.000031,-49.000001 0,-20 4.000011,-49.0000042 11.000031,-49.0000042 16.00006,0 31.00006,0 125.000066,3 2.7686,0.0884 4.99969,2.2302202 4.9997,5.0002202 z M 131.9507,80.720179 v -50.16696 c 0,-1.662004 -1.33781,-3.000324 -2.99981,-3.000324 H 35.950863 c -1.662,0 -3.00035,1.33832 -3.00035,3.000324 v 50.16696 c 0,1.662 1.33835,3.00034 3.00035,3.00034 h 93.000027 c 1.662,0 2.99981,-1.33834 2.99981,-3.00034 z"
       sodipodi:nodetypes="sscscssssssssssss" />
  </g>
</svg>
