<?xml version="1.0" encoding="UTF-8" standalone="no"?>
<!-- Created with Inkscape (http://www.inkscape.org/) -->

<svg
   width="210mm"
   height="297mm"
   viewBox="0 0 210 297"
   version="1.1"
   id="svg322"
   inkscape:version="1.2.1 (9c6d41e410, 2022-07-14)"
   sodipodi:docname="DualLineStuntKite.svg"
   xmlns:inkscape="http://www.inkscape.org/namespaces/inkscape"
   xmlns:sodipodi="http://sodipodi.sourceforge.net/DTD/sodipodi-0.dtd"
   xmlns="http://www.w3.org/2000/svg"
   xmlns:svg="http://www.w3.org/2000/svg">
  <sodipodi:namedview
     id="namedview324"
     pagecolor="#ffffff"
     bordercolor="#666666"
     borderopacity="1.0"
     inkscape:showpageshadow="2"
     inkscape:pageopacity="0.0"
     inkscape:pagecheckerboard="0"
     inkscape:deskcolor="#d1d1d1"
     inkscape:document-units="mm"
     showgrid="false"
     inkscape:zoom="0.914906"
     inkscape:cx="209.31112"
     inkscape:cy="561.80635"
     inkscape:window-width="3440"
     inkscape:window-height="1369"
     inkscape:window-x="-8"
     inkscape:window-y="-8"
     inkscape:window-maximized="1"
     inkscape:current-layer="layer1" />
  <defs
     id="defs319" />
  <g
     inkscape:label="Ebene 1"
     inkscape:groupmode="layer"
     id="layer1">
    <path
       inkscape:connector-curvature="0"
       style="font-style:normal;font-variant:normal;font-weight:normal;font-stretch:normal;font-size:43.8704px;line-height:1.25;font-family:Abrade;-inkscape-font-specification:Abrade;letter-spacing:0px;word-spacing:0px;display:inline;fill:#b3b3b3;fill-opacity:1;stroke:none;stroke-width:1.72664"
       d="M 7.0466066,32.728142 V 81.073577 H 29.147069 c 7.643228,0 13.928272,-2.140575 18.854935,-6.422653 4.926662,-4.282025 7.390135,-10.245023 7.390135,-17.888241 0,-7.505124 -2.44042,-13.375899 -7.321027,-17.611933 -4.880613,-4.282075 -11.188751,-6.422608 -18.924043,-6.422608 z m 52.7432924,0 v 26.797052 c 0,6.998632 2.071408,12.547364 6.215318,16.645249 4.14391,4.097867 9.784893,6.146261 16.921654,6.146261 6.99863,0 12.592694,-2.003062 16.782653,-6.008859 4.236026,-4.051858 6.353556,-9.645924 6.353556,-16.782651 V 32.728142 H 89.487747 v 26.797052 c 0,5.249021 -2.186709,7.873831 -6.560876,7.873831 -2.256112,0 -3.914074,-0.714109 -4.973046,-2.141413 -1.05899,-1.473385 -1.588613,-3.384177 -1.588613,-5.732418 V 32.728142 Z m 67.097601,0 -20.16712,48.345435 h 17.75007 l 2.14061,-6.008823 h 18.51028 l 2.14061,6.008823 h 5.39653 c 2.60991,-3.661408 5.19568,-7.332334 7.75975,-11.012433 L 144.84494,32.728142 Z m 40.81725,0 v 26.760903 c 5.63258,-8.259959 11.15677,-16.564379 16.57528,-24.911988 v -1.848915 z m 16.57528,13.208476 c -5.42022,8.221523 -10.94211,16.402726 -16.57528,24.539141 v 10.597818 h 24.15587 c 3.14741,-4.59031 6.25959,-9.19484 9.33949,-13.81272 H 184.28003 Z M 23.621919,46.402872 h 3.591816 c 3.361198,0 6.07748,0.89772 8.14946,2.69342 2.071975,1.795747 3.108058,4.351432 3.108058,7.666569 0,3.315135 -1.036083,5.893867 -3.108058,7.735602 -2.07198,1.841755 -4.788262,2.762559 -8.14946,2.762559 h -3.591816 z m 112.244281,3.108089 4.76578,13.122535 h -9.53157 z M 205,72.766828 c -1.85748,2.773773 -3.72679,5.542969 -5.60865,8.306931 H 205 Z m -41.74607,4.091648 c -0.98656,1.406498 -1.97658,2.811466 -2.96987,4.215283 h 4.72802 z M 7.0466066,89.915892 V 149.34944 H 52.894731 V 132.36829 H 27.423477 V 89.915892 Z m 52.7609794,0 V 149.34944 H 80.185211 V 89.915892 Z m 28.992311,0 v 59.433548 h 11.418233 c 3.0145,-3.6403 6.00033,-7.29233 8.95862,-10.95544 v -15.70511 l 6.12699,8.0498 c 4.27056,-5.38012 8.48407,-10.7835 12.63964,-16.21051 L 109.34713,89.915892 Z m 40.754553,0 v 22.502988 c 5.6849,-7.4586 11.26485,-14.95991 16.74246,-22.502988 z m 27.89876,0 v 38.887138 c 9.73277,-12.83879 19.15524,-25.80416 28.28926,-38.887138 z m 35.86422,0 c -3.93826,5.681848 -7.9295,11.342868 -11.97674,16.981128 h 22.81003 V 89.915892 Z m -43.3861,5.571691 c -9.90791,13.588067 -20.14472,27.044797 -30.74092,40.356847 l 10.27886,13.50501 h 12.04985 c 2.82875,-3.56576 5.63421,-7.1408 8.41221,-10.72721 z m 28.10289,15.994447 c -6.70526,9.25188 -13.5637,18.44245 -20.58101,27.56926 v 10.29815 H 205 v -16.98115 h -27.16994 v -5.60405 h 22.92407 v -15.28242 z m -68.85747,36.76572 c -0.30036,0.36678 -0.59893,0.73491 -0.89995,1.10169 h 0.89995 z m 40.75458,0.48133 c -0.16266,0.2067 -0.325,0.4134 -0.48777,0.62036 h 0.48777 z m -125.165151,8.21859 c -2.084572,0 -4.094858,0.26034 -6.030529,0.78183 -1.935681,0.48388 -3.722521,1.24699 -5.360398,2.28926 -1.637861,1.00507 -2.959592,2.38225 -3.9646434,4.13177 -0.9678382,1.71232 -1.4511849,3.68538 -1.4511849,5.91888 0,1.63783 0.2607009,3.10854 0.7818428,4.41137 0.5583542,1.26566 1.2097028,2.30765 1.9541935,3.12657 0.781713,0.81891 1.842723,1.58202 3.182817,2.28931 1.340074,0.70721 2.568269,1.24685 3.685011,1.61907 1.116721,0.37206 2.512119,0.78195 4.187225,1.22867 0.260481,0.0396 1.41508,0.33512 3.462441,0.89349 1.898447,0.48393 2.847696,1.22796 2.847696,2.23303 0,0.70725 -0.335066,1.1732 -1.005188,1.39651 -0.632848,0.26033 -1.619359,0.39052 -2.95944,0.39052 -4.690279,0 -9.082507,-1.37722 -13.177181,-4.13181 l -5.9188393,8.65488 c 1.6750876,1.4518 4.1132806,2.80992 7.3145813,4.07552 3.201292,1.3401 6.979408,2.0105 11.334664,2.0105 4.615826,0 8.748185,-0.9493 12.396127,-2.84776 3.610826,-1.82397 5.415836,-5.0807 5.415836,-9.77103 0,-1.74948 -0.316069,-3.33189 -0.948968,-4.74643 -0.632797,-1.41454 -1.414889,-2.56828 -2.345505,-3.46169 -0.930619,-0.93056 -2.140612,-1.74992 -3.629551,-2.45715 -1.488988,-0.74451 -2.884392,-1.32135 -4.187253,-1.73085 -1.265602,-0.40987 -2.79176,-0.81908 -4.578562,-1.22856 -2.047312,-0.52114 -3.480782,-0.96725 -4.299706,-1.33952 -0.893359,-0.37206 -1.340292,-0.87542 -1.340292,-1.50822 0,-1.22842 1.526175,-1.84249 4.578531,-1.84249 3.908596,0 7.370556,1.00555 10.385699,3.01564 l 5.248723,-8.71113 c -4.615825,-3.12686 -9.808366,-4.69022 -15.578147,-4.69022 z m 17.543611,1.22861 v 11.1675 h 11.447162 v 27.91805 h 4.458793 c 3.006765,-3.23911 5.986851,-6.48914 8.941772,-9.7493 v -18.16875 h 11.446338 v -11.1675 z m 40.049766,0 v 12.21531 c 3.528656,-4.05655 7.019965,-8.12859 10.474111,-12.21531 z m 24.009694,0 v 21.66488 c 0,4.24358 -1.76786,6.36487 -5.30416,6.36487 -1.824033,0 -3.163936,-0.5769 -4.020096,-1.73085 -0.856161,-1.19121 -1.28487,-2.73556 -1.28487,-4.63402 v -15.50337 c -4.407756,5.18898 -8.872041,10.35493 -13.400568,15.49536 v 0.009 c 0,5.6581 1.675158,10.143 5.025309,13.45598 3.231567,3.19564 7.592331,4.84544 13.075135,4.95864 6.56401,-7.38572 12.9981,-14.82406 19.31063,-22.31181 v -17.76782 z m 18.30451,0 v 11.91319 c 3.29121,-3.95734 6.54804,-7.92876 9.77261,-11.91319 z m 26.80115,0 v 17.58857 l -11.2318,-14.86622 c -5.10593,6.32616 -10.29535,12.61886 -15.56935,18.87748 v 17.48572 h 13.40058 v -17.53234 l 13.34511,17.53234 h 13.45602 v -39.08555 z m 17.23099,0 v 11.1675 h 11.44638 v 27.91805 h 13.40056 V 169.34378 H 205 v -11.1675 z m -49.92446,28.53914 c -2.74453,3.20476 -5.51372,6.39926 -8.30457,9.58535 1.53557,-0.75003 2.92256,-1.71204 4.15669,-2.89189 1.92207,-1.83844 3.3045,-4.06961 4.14788,-6.69346 z m -51.623923,10.02734 c -0.159193,0.17378 -0.319864,0.3461 -0.47891,0.51907 h 0.47891 z M 7.0466066,205.8661 v 43.00278 C 21.984405,234.76624 36.334876,220.42618 50.141851,205.8661 H 41.08839 L 27.071528,228.56032 V 205.8661 Z m 51.6424324,0 C 42.270485,223.36466 25.080632,240.55202 7.0466066,257.39844 v 6.87342 H 27.071528 v -24.44753 l 13.118519,21.12008 c 4.767012,-4.58201 9.470811,-9.18954 14.118101,-13.81999 L 44.926877,234.23413 65.451596,205.8661 Z m 12.917609,0 v 23.63117 c 6.80384,-7.08992 13.477738,-14.23241 20.024937,-21.42626 v -2.20491 z m 30.395342,0 c -1.18699,1.32451 -2.377969,2.64751 -3.573328,3.96864 v 12.71837 h 17.104868 v 41.71875 h 20.02492 v -41.71875 h 17.10408 V 205.8661 Z m 56.2732,0 v 58.40576 H 205 v -16.68779 h -26.69989 v -5.50664 h 22.52794 v -15.01891 h -22.52794 v -4.50541 h 25.86503 V 205.8661 Z m -66.643605,11.41342 c -6.548877,7.10866 -13.222737,14.16747 -20.024937,21.17398 v 25.81836 h 20.024937 z m -33.618322,34.93613 c -4.058634,4.03694 -8.162576,8.05582 -12.311755,12.05621 h 21.085561 z"
       id="path856-6" />
  </g>
</svg>
