<?xml version="1.0" encoding="UTF-8" standalone="no"?>
<!-- Created with Inkscape (http://www.inkscape.org/) -->

<svg
   width="297mm"
   height="210mm"
   viewBox="0 0 297 210"
   version="1.1"
   id="svg5"
   inkscape:version="1.1.1 (3bf5ae0d25, 2021-09-20)"
   sodipodi:docname="DF65_StandExtension.svg"
   xmlns:inkscape="http://www.inkscape.org/namespaces/inkscape"
   xmlns:sodipodi="http://sodipodi.sourceforge.net/DTD/sodipodi-0.dtd"
   xmlns="http://www.w3.org/2000/svg"
   xmlns:svg="http://www.w3.org/2000/svg">
  <sodipodi:namedview
     id="namedview7"
     pagecolor="#ffffff"
     bordercolor="#666666"
     borderopacity="1.0"
     inkscape:pageshadow="2"
     inkscape:pageopacity="0.0"
     inkscape:pagecheckerboard="0"
     inkscape:document-units="mm"
     showgrid="false"
     inkscape:zoom="0.64854097"
     inkscape:cx="397.04508"
     inkscape:cy="561.25984"
     inkscape:window-width="3440"
     inkscape:window-height="1369"
     inkscape:window-x="-8"
     inkscape:window-y="-8"
     inkscape:window-maximized="1"
     inkscape:current-layer="layer1" />
  <defs
     id="defs2" />
  <g
     inkscape:label="Ebene 1"
     inkscape:groupmode="layer"
     id="layer1">
    <path
       id="path5272"
       style="color:#000000;display:inline;fill:#666666;stroke:#000000;stroke-width:0.5;stroke-linecap:round;stroke-linejoin:round;stroke-miterlimit:4;stroke-dasharray:none;stroke-opacity:1"
       d="m 76.878586,48.511894 c -0.02689,0.003 -0.05376,0.006 -0.08062,0.009 -0.449974,0.011 -0.898224,0.0599 -1.339969,0.14625 -0.143574,0.0314 -0.286256,0.0667 -0.427882,0.10593 -0.201657,0.0419 -0.401621,0.0915 -0.599445,0.14883 -0.124275,0.0489 -0.247303,0.10097 -0.368972,0.15606 -0.150172,0.0582 -0.298551,0.12094 -0.444934,0.1881 -0.313989,0.14634 -0.618141,0.31292 -0.910537,0.49868 -0.11811,0.0694 -0.234421,0.14172 -0.348816,0.21704 -0.397209,0.27605 -0.768559,0.58756 -1.109493,0.9307 -0.0047,0.005 -0.0093,0.0106 -0.01394,0.016 -0.327858,0.34131 -0.624784,0.71104 -0.887283,1.10484 -0.0753,0.11781 -0.1475,0.23756 -0.216524,0.35915 -0.115774,0.17599 -0.224552,0.35648 -0.326078,0.54105 -0.04889,0.11535 -0.09507,0.23182 -0.138493,0.34934 -0.04378,0.0807 -0.08616,0.16223 -0.127125,0.24443 -0.03084,0.0983 -0.05979,0.1972 -0.08682,0.29662 -0.103328,0.29052 -0.189772,0.58678 -0.2589,0.88728 -0.04514,0.18615 -0.08358,0.37386 -0.115239,0.56276 -0.04639,0.31296 -0.07417,0.6284 -0.0832,0.94465 -0.01114,0.18081 -0.01614,0.36196 -0.01498,0.54311 0.01521,0.34172 0.05232,0.6821 0.111104,1.01906 0.01826,0.15446 0.04099,0.30835 0.06821,0.46147 0.09782,0.433612 0.231609,0.858312 0.399976,1.269692 0.01606,0.0498 0.03259,0.0994 0.04961,0.14883 0.198601,0.46091 0.440134,0.9021 0.721404,1.31775 0.07635,0.10108 0.155094,0.20032 0.23616,0.29766 0.217143,0.29892 0.454736,0.58244 0.711067,0.84852 0.128204,0.12148 0.260398,0.23868 0.396359,0.35141 0.23731,0.21549 0.48736,0.41653 0.748792,0.60203 0.161118,0.10723 0.326076,0.20858 0.494544,0.30385 0.151902,0.10053 0.307199,0.19585 0.465603,0.28577 3.289313,1.64466 6.065832,3.427 8.433078,5.34955 7.93e-4,7.9e-4 0.0019,10e-4 0.0026,0.002 1.394222,1.20336 2.80279,2.55801 4.225581,4.0442 2.315128,2.61995 4.10871,5.45897 5.574853,8.52454 3.43821,7.18898 4.878512,15.86203 5.351613,25.324044 0.73515,14.70305 -4.54288,31.08051 -11.738303,42.27339 -0.0043,0.008 -0.0086,0.0165 -0.01291,0.0248 -0.02514,0.0406 -0.052,0.0791 -0.077,0.11989 -0.05799,0.11253 -0.113299,0.22642 -0.165883,0.34158 -0.170471,0.30016 -0.321339,0.61104 -0.451651,0.93069 -0.06259,0.17403 -0.119121,0.35018 -0.169498,0.52813 -0.0963,0.29676 -0.175151,0.59889 -0.236162,0.90486 -0.03398,0.19514 -0.06069,0.39147 -0.0801,0.5886 -0.03454,0.29779 -0.05231,0.5973 -0.05323,0.8971 2.65e-4,0.20193 0.0082,0.40379 0.02376,0.60513 0.02416,0.29833 0.06505,0.59508 0.122473,0.88883 0.03505,0.19668 0.07745,0.39199 0.127124,0.5855 0.08337,0.29489 0.183613,0.58477 0.300239,0.86816 0.06585,0.17891 0.138067,0.35542 0.216524,0.52917 0.150413,0.29846 0.319381,0.58721 0.505913,0.86454 0.08261,0.14008 0.169462,0.2776 0.26045,0.41238 0.284001,0.3844 0.601877,0.74257 0.949812,1.07022 0.0127,0.014 0.02545,0.028 0.03824,0.0419 0.342469,0.31673 0.711986,0.6029 1.104326,0.85524 0.02593,0.0139 0.05195,0.0277 0.07803,0.0413 0.02146,0.0163 0.04298,0.0325 0.06459,0.0486 0.123455,0.0639 0.248555,0.12454 0.375171,0.1819 0.287428,0.16223 0.584618,0.30651 0.889868,0.43202 0.184301,0.0664 0.370978,0.12607 0.559658,0.1788 0.285911,0.0923 0.576794,0.16835 0.871264,0.22789 0.203304,0.0358 0.407927,0.0637 0.613397,0.0837 0.290465,0.0332 0.582531,0.0504 0.874885,0.0517 0.207116,-2.3e-4 0.414155,-0.009 0.620633,-0.0248 0.291179,-0.0239 0.580829,-0.0638 0.867648,-0.11937 0.204377,-0.0362 0.407278,-0.0803 0.608229,-0.13229 0.285809,-0.0816 0.566849,-0.17909 0.841809,-0.29198 0.186357,-0.0682 0.370107,-0.14339 0.550873,-0.2253 0.291476,-0.14762 0.573646,-0.31295 0.844908,-0.49507 0.145616,-0.0855 0.288488,-0.17567 0.4284,-0.27026 0.382423,-0.28293 0.738857,-0.59942 1.065051,-0.94568 0.01503,-0.0137 0.03002,-0.0275 0.04496,-0.0413 0.316732,-0.34247 0.602906,-0.71199 0.855244,-1.10433 0.03013,-0.0469 0.05934,-0.0951 0.0894,-0.14211 l 5.29e-4,-5.3e-4 C 102.45978,151.694 110.14525,148.3085 121.4702,146.703 c 7.6263,-1.08115 16.46756,-1.22081 25.43824,-1.19269 l 0.0207,0.002 h 3.72948 c 3.10285,0.0228 6.20854,0.0556 9.26817,0.0682 0.13786,-0.0192 0.27519,-0.0419 0.41186,-0.0682 h 56.68233 c 6.07521,-9e-5 11.00005,-4.92515 10.99985,-11.00037 -9e-5,-6.07501 -4.92484,-10.99976 -10.99985,-10.99984 h -59.00837 c -10.51794,0 -27.12245,-16.61358 -35.21645,-28.355384 -12.34621,-17.91038 -23.792223,-38.400372 -42.849583,-46.066442 -0.08092,-0.025 -0.162235,-0.0488 -0.243912,-0.0713 -0.310745,-0.11203 -0.628129,-0.20471 -0.95033,-0.2775 -0.145598,-0.0382 -0.292246,-0.0724 -0.439767,-0.10232 -0.469696,-0.0842 -0.945983,-0.12624 -1.42317,-0.12558 z M 146.9601,128.26207 c 3.45178,-1.5e-4 6.25012,2.79796 6.25026,6.24975 1.5e-4,3.45198 -2.79828,6.25041 -6.25026,6.25026 -3.45179,-1.4e-4 -6.24989,-2.79848 -6.24975,-6.25026 1.4e-4,-3.45158 2.79817,-6.24961 6.24975,-6.24975 z m 69.99986,0 c 3.45178,-1.5e-4 6.25012,2.79796 6.25026,6.24975 1.5e-4,3.45198 -2.79828,6.25041 -6.25026,6.25026 -3.45178,-1.4e-4 -6.2499,-2.79848 -6.24975,-6.25026 1.4e-4,-3.45159 2.79816,-6.24961 6.24975,-6.24975 z"
       sodipodi:nodetypes="cccccccccccccccccccccccccccccccccccssccccccccccccccccccccccccccccccccccccsccsccccccccssccccccssssssssss" />
  </g>
</svg>
